<?xml version="1.0" standalone="no"?>
<!DOCTYPE svg PUBLIC "-//W3C//DTD SVG 1.1//EN" "http://www.w3.org/Graphics/SVG/1.1/DTD/svg11.dtd" >
<svg xmlns="http://www.w3.org/2000/svg" xmlns:xlink="http://www.w3.org/1999/xlink" version="1.1">
<metadata></metadata>
<defs>
<font id="gobold_extra2regular" horiz-adv-x="1033" >
<font-face units-per-em="2048" ascent="1638" descent="-410" />
<missing-glyph horiz-adv-x="508" />
<glyph unicode="&#xd;" horiz-adv-x="508" />
<glyph horiz-adv-x="0" />
<glyph horiz-adv-x="0" />
<glyph unicode=" "  horiz-adv-x="508" />
<glyph unicode="&#x09;" horiz-adv-x="508" />
<glyph unicode="&#xa0;" horiz-adv-x="508" />
<glyph unicode="!" horiz-adv-x="565" d="M120 0v325h325v-325h-325zM120 1962h325l-21 -1432h-283z" />
<glyph unicode="&#x22;" horiz-adv-x="968" d="M120 1963h296l-34 -652h-228zM552 1963h296l-34 -652h-228z" />
<glyph unicode="#" horiz-adv-x="1349" d="M80 730v153h204l51 257h-213v153h244l133 670h237l-133 -670h245l133 670h237l-133 -670h184v-153h-215l-51 -257h224v-153h-255l-145 -730h-237l145 730h-245l-145 -730h-237l145 730h-173zM521 883h245l51 257h-245z" />
<glyph unicode="$" horiz-adv-x="1053" d="M120 413v263h283v-263q0 -133 123 -133t123 133v223q0 143 -264 332q-265 190 -265 461v184q0 358 290 404v176h232v-176q291 -46 291 -404v-264h-284v264q0 132 -122 133h-2q-122 0 -122 -133v-178q0 -132 265 -321t265 -453v-248q0 -359 -291 -404v-239h-232v239 q-290 46 -290 404z" />
<glyph unicode="%" horiz-adv-x="1697" d="M125 1079v704q0 242 239 242q238 0 238 -242v-704q0 -242 -238 -242q-239 0 -239 242zM291 1079q0 -78 73 -78q72 0 72 78v704q0 78 -72 78h-2q-71 0 -71 -78v-704zM383 0l723 1963h175l-722 -1963h-176zM1095 243v704q0 242 238 242q239 0 239 -242v-704 q0 -242 -239 -242h-2q-236 0 -236 242zM1261 243q0 -78 72 -78q73 0 73 78v704q0 78 -72 78h-2q-71 0 -71 -78v-704z" />
<glyph unicode="&#x26;" horiz-adv-x="1183" d="M120 413v327q0 193 155 273q-155 80 -155 273v295q0 413 405 413q408 0 408 -413v-84h-283v84q0 120 -121 135q-126 -12 -126 -135v-295q0 -94 77 -125q20 -8 65 -9h105v134h283v-134h180v-279h-180v-460q0 -412 -410 -412q-403 0 -403 412zM403 413q0 -134 116 -134h5 q126 1 126 134v460h-105q-45 -1 -65 -9q-77 -30 -77 -124v-327z" />
<glyph unicode="'" horiz-adv-x="536" d="M120 1963h296l-34 -652h-228z" />
<glyph unicode="(" horiz-adv-x="544" d="M120 166v1632q0 407 394 412v-232q-111 -3 -111 -134v-1725q0 -130 111 -133v-233q-394 5 -394 413z" />
<glyph unicode=")" horiz-adv-x="544" d="M30 -14q111 3 111 133v1725q0 131 -111 134v232q394 -5 394 -412v-1632q0 -408 -394 -413v233z" />
<glyph unicode="*" horiz-adv-x="1012" d="M120 1679q0 27 11 61q30 97 98 97q30 0 68 -19q61 -32 178 -159q-88 160 -96 226q-1 12 -1 23q0 104 126 105h4q125 0 125 -99q0 -16 -3 -34q-12 -69 -96 -219q125 133 186 161q33 16 61 16q67 0 99 -95q12 -36 12 -65q0 -81 -100 -96q-16 -2 -37 -2q-70 0 -201 26 q166 -78 211 -127q38 -40 38 -79q0 -51 -64 -98q-50 -37 -90 -37q-55 0 -90 71q-31 62 -51 234q-23 -182 -56 -240q-35 -64 -89 -64q-38 0 -87 34q-67 48 -67 98q0 41 44 84q49 49 206 120q-130 -25 -200 -25q-27 0 -45 4q-94 18 -94 98z" />
<glyph unicode="+" horiz-adv-x="1047" d="M120 865v233h288v287h232v-287h287v-233h-287v-287h-232v287h-288z" />
<glyph unicode="," horiz-adv-x="591" d="M120 0v325h351v-287l-108 -365h-183l58 327h-118z" />
<glyph unicode="-" horiz-adv-x="786" d="M50 841v233h686v-233h-686z" />
<glyph unicode="." horiz-adv-x="565" d="M120 0v325h325v-325h-325z" />
<glyph unicode="/" horiz-adv-x="748" d="M60 0l391 1963h237l-391 -1963h-237z" />
<glyph unicode="0" horiz-adv-x="1053" d="M120 381v1200q0 413 406 413q407 0 407 -413v-1200q0 -412 -407 -412q-406 0 -406 412zM403 381q0 -133 123 -133q124 0 124 133v1200q0 133 -123 133h-2q-122 0 -122 -133v-1200z" />
<glyph unicode="1" horiz-adv-x="1073" d="M225 1623v269l548 100v-1992h-283v1673z" />
<glyph unicode="2" horiz-adv-x="1073" d="M130 0v501q0 265 264 454q265 189 266 321v305q0 133 -122 133h-2q-123 0 -123 -133v-263h-283v263q0 413 406 413q407 0 407 -413v-312q0 -270 -265 -460q-265 -189 -265 -332v-198h530v-279h-813z" />
<glyph unicode="3" horiz-adv-x="1073" d="M130 381v263h283v-263q0 -133 122 -133h2q123 1 123 133v253q0 197 -179 197h-53v279h75q157 0 157 192v279q0 132 -123 133h-2q-122 0 -122 -133v-263h-283v263q0 412 406 412q407 0 407 -412v-281q0 -253 -175 -333q175 -80 175 -333v-253q0 -412 -407 -412 q-406 0 -406 412z" />
<glyph unicode="4" d="M52 401v248l456 1313h361v-1282h109v-279h-109v-401h-283v401h-534zM311 680h275v829z" />
<glyph unicode="5" horiz-adv-x="1073" d="M130 381v232h283v-232q0 -133 122 -133h2q123 1 123 133v557q0 144 -121 144q-125 -5 -126 -167h-283l101 1047h712v-279h-479l-40 -422q73 81 231 81q148 0 225 -119q63 -86 63 -285v-557q0 -412 -407 -412q-406 0 -406 412z" />
<glyph unicode="6" horiz-adv-x="1073" d="M130 381v1200q0 413 406 413q407 0 407 -413v-263h-283v263q0 133 -123 133h-2q-122 0 -122 -133v-477q79 71 195 71q21 0 43 -2q136 -14 213 -97q79 -85 79 -305v-390q0 -412 -407 -412q-406 0 -406 412zM413 381q0 -133 123 -133q124 0 124 133v390q0 105 -44 123 q-24 11 -77 11q-13 0 -27 -1q-99 -4 -99 -133v-390z" />
<glyph unicode="7" horiz-adv-x="1073" d="M121 1683v279h837v-201l-396 -1761h-290l378 1683h-529z" />
<glyph unicode="8" horiz-adv-x="1074" d="M130 381v263q0 243 155 323q-155 80 -155 333v281q0 412 407 412t407 -412v-291q0 -243 -155 -323q155 -80 155 -323v-263q0 -412 -407 -412t-407 412zM413 381q0 -132 123 -133h2q123 1 123 133v313q0 137 -126 137q-122 0 -122 -137v-313zM413 1242q0 -132 121 -132 q127 0 127 132v339q0 132 -125 133q-123 -1 -123 -133v-339z" />
<glyph unicode="9" horiz-adv-x="1073" d="M130 381v264h283v-264q0 -132 123 -133h2q122 0 122 133v478q-81 -72 -198 -72q-19 0 -40 2q-136 14 -213 97q-79 86 -79 305v390q0 412 407 413q406 0 406 -413v-1200q0 -412 -407 -412q-406 0 -406 412zM413 1191q0 -104 44 -123q23 -10 75 -10q13 0 28 1 q100 3 100 132v390q0 133 -123 133q-124 0 -124 -133v-390z" />
<glyph unicode=":" horiz-adv-x="564" d="M120 0v325h324v-325h-324zM120 1005v324h324v-324h-324z" />
<glyph unicode=";" horiz-adv-x="591" d="M120 0v325h351v-287l-108 -365h-183l58 327h-118zM120 1005v324h325v-324h-325z" />
<glyph unicode="&#x3c;" horiz-adv-x="1047" d="M120 829v291l807 452v-275l-587 -320l587 -311v-274z" />
<glyph unicode="=" horiz-adv-x="1047" d="M120 633v232h807v-232h-807zM120 1096v233h807v-233h-807z" />
<glyph unicode="&#x3e;" horiz-adv-x="1047" d="M120 392v274l587 311l-587 320v275l807 -452v-291z" />
<glyph unicode="?" horiz-adv-x="1053" d="M120 1318v263q0 413 407 413q406 0 406 -413v-197q0 -249 -199 -447t-199 -345v-45h-283v69q0 245 199 442t199 333v190q0 133 -122 133h-2q-123 0 -123 -133v-263h-283zM236 0v325h325v-325h-325z" />
<glyph unicode="@" horiz-adv-x="1483" d="M130 596v801q0 608 612 608q611 0 611 -595v-107h-1v-79q0 -272 -267 -272h-109v-344q0 -272 -268 -272q-267 0 -267 272v257q0 271 267 271h82v262q0 87 -81 87h-2q-80 0 -80 -87v-70h-186v70q0 271 267 271q268 0 268 -271v-262h109q81 0 81 88v186q0 412 -424 412 q-425 0 -425 -425v-801q0 -412 425 -412q424 0 424 424v43h187v-43q0 -607 -611 -607q-612 0 -612 595zM611 608q0 -88 81 -88q82 0 82 88v344l-82 1q-81 0 -81 -88v-257z" />
<glyph unicode="A" horiz-adv-x="1051" d="M40 0l292 1962h388l291 -1962h-286l-51 400h-298l-51 -400h-285zM410 670h230l-115 912z" />
<glyph unicode="B" horiz-adv-x="1043" d="M130 0v1962h436q377 -1 377 -413v-591q0 -193 -155 -273q155 -80 155 -273q0 -411 -395 -412h-418zM413 279h124q123 0 123 133q0 94 -77 124q-22 9 -81 9h-89v-266zM413 825h89q59 0 81 8q77 31 77 125v591q0 134 -123 134h-124v-858z" />
<glyph unicode="C" horiz-adv-x="1023" d="M110 381v1200q0 412 406 412q407 0 407 -412v-480h-283v480q0 132 -123 133h-2q-122 0 -122 -133v-1200q0 -133 123 -133q124 0 124 133v319h283v-319q0 -412 -407 -413q-406 0 -406 413z" />
<glyph unicode="D" horiz-adv-x="1053" d="M130 0v1962h436q377 -1 377 -413v-1137q0 -411 -395 -412h-418zM413 279h124q123 0 123 133v1137q0 134 -123 134h-124v-1404z" />
<glyph unicode="E" horiz-adv-x="944" d="M130 0v1962h734v-279h-451v-883h388v-280h-388v-241h451v-279h-734z" />
<glyph unicode="F" horiz-adv-x="924" d="M130 0v1962h734v-279h-451v-884h388v-280h-388v-519h-283z" />
<glyph unicode="G" d="M110 381v1200q0 412 406 412q407 0 407 -412v-481h-283v481q0 132 -123 133h-2q-122 0 -122 -133v-1200q0 -133 123 -133q124 0 124 133v139h-123v280h406v-419q0 -412 -407 -413q-406 0 -406 413z" />
<glyph unicode="H" horiz-adv-x="1073" d="M130 0v1962h283v-1163h247v1163h283v-1962h-283v519h-247v-519h-283z" />
<glyph unicode="I" horiz-adv-x="553" d="M135 0v1962h283v-1962h-283z" />
<glyph unicode="J" horiz-adv-x="973" d="M30 381v419h283v-419q0 -133 124 -133q123 0 123 133v1581h283v-1581q0 -413 -406 -413q-407 1 -407 413z" />
<glyph unicode="K" horiz-adv-x="1057" d="M130 0v1962h283v-1225l301 1225h283l-335 -1314l355 -648h-303l-301 530v-530h-283z" />
<glyph unicode="L" horiz-adv-x="904" d="M130 0v1962h283v-1683h451v-279h-734z" />
<glyph unicode="M" horiz-adv-x="1306" d="M130 -1v1962h223l300 -506l300 506h223v-1962h-273v1382l-250 -426l-250 426v-1382h-273z" />
<glyph unicode="N" horiz-adv-x="1073" d="M130 0v1962h233l307 -540v540h273v-1962h-273v912l-267 480v-1392h-273z" />
<glyph unicode="O" d="M110 381v1200q0 412 406 412q407 0 407 -412v-1200q0 -412 -407 -413q-406 0 -406 413zM393 381q0 -133 123 -133q124 0 124 133v1200q0 132 -123 133h-2q-122 0 -122 -133v-1200z" />
<glyph unicode="P" horiz-adv-x="999" d="M130 0v1962h412q377 -1 377 -413v-616q0 -304 -271 -392q-65 -21 -189 -21h-46v-520h-283zM413 800h65q59 0 81 8q77 31 77 125v616q0 134 -123 134h-100v-883z" />
<glyph unicode="Q" d="M110 381v1200q0 412 406 412q407 0 407 -412v-1200q0 -368 -310 -407q5 -84 310 -86v-236q-467 1 -470 319q-343 25 -343 410zM393 381q0 -133 123 -133q124 0 124 133v1200q0 132 -123 133h-2q-122 0 -122 -133v-1200z" />
<glyph unicode="R" horiz-adv-x="1044" d="M130 0v1962h412q377 -1 377 -413v-616q0 -260 -198 -362l293 -571h-310l-252 520h-39v-520h-283zM413 790h65q59 0 81 8q77 31 77 125v627q0 134 -123 134h-100v-894z" />
<glyph unicode="S" d="M110 381v138h283v-138q0 -133 124 -133q123 0 123 133q0 142 -265 332q-265 189 -265 530v338q0 412 406 412q407 0 407 -412v-480h-283v480q0 132 -123 133h-2q-122 0 -122 -133v-332q0 -231 265 -391q265 -189 265 -477q0 -413 -406 -413q-407 1 -407 413z" />
<glyph unicode="T" horiz-adv-x="913" d="M50 1683v279h813v-279h-265v-1683h-283v1683h-265z" />
<glyph unicode="U" horiz-adv-x="1053" d="M120 381v1581h283v-1581q0 -133 123 -133q124 0 124 133v1581h283v-1581q0 -412 -407 -413q-406 0 -406 413z" />
<glyph unicode="V" horiz-adv-x="1051" d="M40 1962h286l199 -1612l200 1612h286l-291 -1962h-388z" />
<glyph unicode="W" horiz-adv-x="1396" d="M50 1962h285l130 -1462l238 526l227 -536l130 1472h286l-201 -1962h-258l-189 476l-198 -476h-248z" />
<glyph unicode="X" horiz-adv-x="987" d="M10 -1l231 651l-231 1311h285l199 -1233l198 1233h285l-231 -1311l231 -651h-305l-178 608l-179 -608h-305z" />
<glyph unicode="Y" horiz-adv-x="1066" d="M40 1962h300l193 -1014l193 1014h300l-351 -1446v-516h-283v516z" />
<glyph unicode="Z" horiz-adv-x="880" d="M80 0v170l384 1513h-371v279h690v-170l-384 -1513h401v-279h-720z" />
<glyph unicode="[" horiz-adv-x="547" d="M130 -247v2457h387v-232h-154v-1992h154v-233h-387z" />
<glyph unicode="\" horiz-adv-x="748" d="M60 1963h237l391 -1963h-237z" />
<glyph unicode="]" horiz-adv-x="547" d="M30 -14h154v1992h-154v232h387v-2457h-387v233z" />
<glyph unicode="^" horiz-adv-x="1157" d="M100 1172l351 807h255l351 -807h-254l-225 517l-224 -517h-254z" />
<glyph unicode="_" horiz-adv-x="1032" d="M0 -107h1032v-211h-1032v211z" />
<glyph unicode="`" horiz-adv-x="624" d="M130 2292h222l112 -253h-177z" />
<glyph unicode="a" d="M110 1101v480q0 412 407 412q406 0 406 -412v-1581h-253l-20 121q-86 -152 -254 -153q-138 0 -208.5 104t-70.5 255q0 496 523 547v707q0 133 -122 133h-2q-123 -1 -123 -133v-480h-283zM400 357q0 -128 57 -128q183 14 183 272v104q-240 -60 -240 -248z" />
<glyph unicode="b" horiz-adv-x="1043" d="M130 0v1962h436q377 -1 377 -413v-591q0 -193 -155 -273q155 -80 155 -273q0 -411 -395 -412h-418zM413 279h124q123 0 123 133q0 94 -77 124q-22 9 -81 9h-89v-266zM413 825h89q59 0 81 8q77 31 77 125v591q0 134 -123 134h-124v-858z" />
<glyph unicode="c" horiz-adv-x="1023" d="M110 381v1200q0 412 406 412q407 0 407 -412v-480h-283v480q0 132 -123 133h-2q-122 0 -122 -133v-1200q0 -133 123 -133q124 0 124 133v319h283v-319q0 -412 -407 -413q-406 0 -406 413z" />
<glyph unicode="d" horiz-adv-x="1053" d="M130 0v1962h436q377 -1 377 -413v-1137q0 -411 -395 -412h-418zM413 279h124q123 0 123 133v1137q0 134 -123 134h-124v-1404z" />
<glyph unicode="e" horiz-adv-x="944" d="M130 0v1962h734v-279h-451v-883h388v-280h-388v-241h451v-279h-734z" />
<glyph unicode="f" horiz-adv-x="924" d="M130 0v1962h734v-279h-451v-884h388v-280h-388v-519h-283z" />
<glyph unicode="g" d="M110 381v1200q0 412 406 412q407 0 407 -412v-481h-283v481q0 132 -123 133h-2q-122 0 -122 -133v-1200q0 -133 123 -133q124 0 124 133v139h-123v280h406v-419q0 -412 -407 -413q-406 0 -406 413z" />
<glyph unicode="h" horiz-adv-x="1073" d="M130 0v1962h283v-1163h247v1163h283v-1962h-283v519h-247v-519h-283z" />
<glyph unicode="i" horiz-adv-x="553" d="M135 0v1962h283v-1962h-283z" />
<glyph unicode="j" horiz-adv-x="973" d="M30 381v419h283v-419q0 -133 124 -133q123 0 123 133v1581h283v-1581q0 -413 -406 -413q-407 1 -407 413z" />
<glyph unicode="k" horiz-adv-x="1057" d="M130 0v1962h283v-1225l301 1225h283l-335 -1314l355 -648h-303l-301 530v-530h-283z" />
<glyph unicode="l" horiz-adv-x="904" d="M130 0v1962h283v-1683h451v-279h-734z" />
<glyph unicode="m" horiz-adv-x="1306" d="M130 -1v1962h223l300 -506l300 506h223v-1962h-273v1382l-250 -426l-250 426v-1382h-273z" />
<glyph unicode="n" horiz-adv-x="1073" d="M130 0v1962h233l307 -540v540h273v-1962h-273v912l-267 480v-1392h-273z" />
<glyph unicode="o" d="M110 381v1200q0 412 406 412q407 0 407 -412v-1200q0 -412 -407 -413q-406 0 -406 413zM393 381q0 -133 123 -133q124 0 124 133v1200q0 132 -123 133h-2q-122 0 -122 -133v-1200z" />
<glyph unicode="p" horiz-adv-x="999" d="M130 0v1962h412q377 -1 377 -413v-616q0 -304 -271 -392q-65 -21 -189 -21h-46v-520h-283zM413 800h65q59 0 81 8q77 31 77 125v616q0 134 -123 134h-100v-883z" />
<glyph unicode="q" d="M110 381v1200q0 412 406 412q407 0 407 -412v-1200q0 -368 -310 -407q5 -84 310 -86v-236q-467 1 -470 319q-343 25 -343 410zM393 381q0 -133 123 -133q124 0 124 133v1200q0 132 -123 133h-2q-122 0 -122 -133v-1200z" />
<glyph unicode="r" horiz-adv-x="1044" d="M130 0v1962h412q377 -1 377 -413v-616q0 -260 -198 -362l293 -571h-310l-252 520h-39v-520h-283zM413 790h65q59 0 81 8q77 31 77 125v626q0 134 -123 134h-100v-893z" />
<glyph unicode="s" d="M110 381v138h283v-138q0 -133 124 -133q123 0 123 133q0 142 -265 332q-265 189 -265 530v338q0 412 406 412q407 0 407 -412v-480h-283v480q0 132 -123 133h-2q-122 0 -122 -133v-332q0 -231 265 -391q265 -189 265 -477q0 -413 -406 -413q-407 1 -407 413z" />
<glyph unicode="t" horiz-adv-x="913" d="M50 1683v279h813v-279h-265v-1683h-283v1683h-265z" />
<glyph unicode="u" horiz-adv-x="1053" d="M120 381v1581h283v-1581q0 -133 123 -133q124 0 124 133v1581h283v-1581q0 -412 -407 -413q-406 0 -406 413z" />
<glyph unicode="v" horiz-adv-x="1051" d="M40 1962h286l199 -1612l200 1612h286l-291 -1962h-388z" />
<glyph unicode="w" horiz-adv-x="1396" d="M50 1962h285l130 -1462l238 526l227 -536l130 1472h286l-201 -1962h-258l-189 476l-198 -476h-248z" />
<glyph unicode="x" horiz-adv-x="987" d="M10 -1l231 651l-231 1311h285l199 -1233l198 1233h285l-231 -1311l231 -651h-305l-178 608l-179 -608h-305z" />
<glyph unicode="y" horiz-adv-x="1066" d="M40 1962h300l193 -1014l193 1014h300l-351 -1446v-516h-283v516z" />
<glyph unicode="z" horiz-adv-x="880" d="M80 0v170l384 1513h-371v279h690v-170l-384 -1513h401v-279h-720z" />
<glyph unicode="{" horiz-adv-x="545" d="M10 865v233q111 3 111 133v567q0 407 394 412v-232q-111 -3 -111 -134v-566q0 -199 -139 -296q139 -98 139 -297v-566q0 -130 111 -133v-233q-394 5 -394 413v566q0 131 -111 133z" />
<glyph unicode="|" horiz-adv-x="512" d="M140 -327v2617h232v-2617h-232z" />
<glyph unicode="}" horiz-adv-x="545" d="M30 -14q111 3 111 133v566q0 199 139 297q-139 97 -139 296v566q0 131 -111 134v232q394 -5 394 -412v-567q0 -130 111 -133v-233q-111 -2 -111 -133v-566q0 -408 -394 -413v233z" />
<glyph unicode="~" horiz-adv-x="1100" d="M100 940l54 83q99 154 232 154h10q88 -4 224 -106q68 -51 112 -51q31 0 50 24l62 78l156 -124l-62 -78q-90 -114 -204 -114h-12q-88 4 -222 105q-79 60 -96 63q-4 1 -9 1q-34 0 -73 -60l-54 -84z" />
<glyph unicode="&#xa1;" horiz-adv-x="565" d="M120 -1l21 1432h283l21 -1432h-325zM120 1636v325h325v-325h-325z" />
<glyph unicode="&#xa2;" horiz-adv-x="1073" d="M120 -318l113 372q-113 90 -113 282v1057q0 364 406 364q128 0 216 -36l71 231l140 -9l-94 -306q74 -89 74 -244v-232h-219l-279 -914q30 -28 91 -28q124 0 124 117v233h283v-233q0 -363 -407 -363q-96 0 -169 20l-98 -320zM403 609l246 805q-11 96 -122 97 q-124 0 -124 -118v-784z" />
<glyph unicode="&#xa3;" horiz-adv-x="1126" d="M60 0v259h69q124 0 124 134v445h-193v158h193v585q0 413 406 413q407 0 407 -413v-263h-283v263q0 133 -123 133h-2q-122 0 -122 -133v-585h411v-158h-411v-286q0 -177 -62 -273h583v-279h-997z" />
<glyph unicode="&#xa4;" horiz-adv-x="1398" d="M130 574l169 168q-6 48 -6 106v267q0 48 4 89l-167 167l171 170l100 -100q96 87 298 87t299 -87l100 100l170 -170l-167 -167q5 -41 5 -89v-267q0 -57 -7 -106l169 -168l-170 -171l-110 111q-97 -78 -289 -78t-288 77l-110 -110zM576 848q0 -133 123 -133q124 0 124 133 v267q0 132 -123 133h-2q-122 0 -122 -133v-267z" />
<glyph unicode="&#xa5;" horiz-adv-x="1186" d="M100 1962h300l193 -764l193 764h300l-304 -986h215v-158h-262v-159h262v-159h-262v-500h-283v500h-262v159h262v159h-262v158h214z" />
<glyph unicode="&#xa6;" horiz-adv-x="512" d="M140 0v784h232v-784h-232zM140 986v743h232v-743h-232z" />
<glyph unicode="&#xa7;" horiz-adv-x="1053" d="M120 908q0 273 188 346q-188 126 -188 384q0 356 403 356q386 0 386 -356v-100h-283v100q0 115 -112 115q-111 0 -111 -115q0 -180 265 -330t265 -472q0 -285 -241 -340q241 -148 241 -443q0 -380 -404 -380q-386 0 -386 380v106h283v-106q0 -123 113 -123q110 0 110 123 q0 192 -264 352q-265 159 -265 503zM386 855q0 -144 133 -144q134 0 134 144v41q0 143 -133 144h-2q-132 0 -132 -144v-41z" />
<glyph unicode="&#xa8;" horiz-adv-x="899" d="M130 2050v242h242v-242h-242zM526 2050v242h243v-242h-243z" />
<glyph unicode="&#xa9;" horiz-adv-x="1463" d="M120 596v801q0 608 611 608q612 0 612 -595v-802q0 -607 -612 -607q-611 0 -611 595zM307 596q0 -412 424 -412q425 0 425 424v802q0 412 -424 412q-425 0 -425 -425v-801zM463 604v798q0 274 270 274q271 0 271 -274v-77h-189v77q0 88 -81 89q-83 0 -83 -89v-798 q0 -89 82 -89t82 89v76h189v-76q0 -275 -271 -275q-270 0 -270 275z" />
<glyph unicode="&#xaa;" horiz-adv-x="761" d="M60 925l61 367l132 670h256l131 -669l61 -368h-189l-36 221h-191l-37 -221h-188zM67 521v193h619v-193h-619zM309 1293h142l-71 431z" />
<glyph unicode="&#xab;" horiz-adv-x="1305" d="M130 1002l556 507v-330l-224 -190l224 -184v-320zM619 1002l556 507v-330l-224 -190l224 -184v-320z" />
<glyph unicode="&#xac;" horiz-adv-x="1067" d="M130 865v233h807v-520h-232v287h-575z" />
<glyph unicode="&#xad;" horiz-adv-x="786" d="M50 841v233h686v-233h-686z" />
<glyph unicode="&#xae;" horiz-adv-x="1463" d="M120 596v801q0 608 611 608q612 0 612 -595v-802q0 -607 -612 -607q-611 0 -611 595zM307 596q0 -412 424 -412q425 0 425 424v802q0 412 -424 412q-425 0 -425 -425v-801zM458 350v1306l278 -1h12q251 0 251 -274v-197q0 -128 -103 -181q103 -53 103 -182v-471h-188v471 q0 62 -51 83q-15 6 -55 6h-59v-560h-188zM646 1096h59q40 0 55 6q51 20 51 82v197q0 89 -82 89h-83v-374z" />
<glyph unicode="&#xaf;" horiz-adv-x="1208" d="M0 1752v211h1208v-211h-1208z" />
<glyph unicode="&#xb0;" horiz-adv-x="877" d="M130 1741q0 308 308 308q309 0 309 -308q0 -309 -309 -309q-308 0 -308 309zM313 1741q0 -126 125 -126q126 0 126 126q0 125 -126 125q-125 0 -125 -125z" />
<glyph unicode="&#xb1;" horiz-adv-x="1047" d="M120 160v212h805v-212h-805zM120 865v233h288v287h232v-287h287v-233h-287v-287h-232v287h-288z" />
<glyph unicode="&#xb2;" horiz-adv-x="674" d="M100 831v246q0 154 154 265q154 110 155 187v224q0 78 -71 78h-1q-72 0 -72 -78v-153h-165v153q0 241 237 241t237 -241v-228q0 -158 -155 -269q-154 -110 -154 -193v-69h309v-163h-474z" />
<glyph unicode="&#xb3;" horiz-adv-x="679" d="M100 1051v155h165v-156q0 -80 74 -80q75 0 75 80v211q0 63 -26 75q-15 6 -44 6h-57v164h70q23 0 35 7q22 13 22 71v172q0 63 -26 75q-15 6 -46 6q-8 0 -17 -1q-60 -2 -60 -80v-154h-165v155q0 168 97 218q68 35 139 35q66 0 135 -31q108 -46 108 -222v-174 q0 -114 -91 -161q91 -47 91 -161v-210q0 -151 -78 -206q-49 -35 -153 -38h-14q-92 0 -143 30q-91 52 -91 214z" />
<glyph unicode="&#xb4;" horiz-adv-x="624" d="M130 2039l112 253h222l-157 -253h-177z" />
<glyph unicode="&#xb5;" horiz-adv-x="1063" d="M130 -327v1962h283v-1255q0 -132 123 -132q124 0 124 133v1254h283v-1254q0 -373 -319 -408q-19 -2 -37 -2q-93 0 -174 53v-351h-283z" />
<glyph unicode="&#xb6;" horiz-adv-x="1170" d="M100 1310v354q0 199 71 255q55 44 244 44h625v-1963h-201v1762h-223v-1762h-201v1021q-194 0 -246 39q-69 52 -69 250z" />
<glyph unicode="&#xb7;" horiz-adv-x="508" d="M117 717v276h276v-276h-276z" />
<glyph unicode="&#xb8;" horiz-adv-x="571" d="M106 -328l28 76q45 -18 120 -18q67 0 67 65q0 56 -41 57q-31 0 -39 -17h-76l37 166h109l-37 -97q25 10 51 10q126 0 126 -119q0 -155 -184 -155q-100 0 -161 32z" />
<glyph unicode="&#xb9;" horiz-adv-x="1073" d="M130 830v161h153v810h-153v161h316v-971h153v-161h-469z" />
<glyph unicode="&#xba;" horiz-adv-x="777" d="M120 1110v634q0 218 268 218q269 0 269 -218v-634q0 -218 -269 -218q-268 0 -268 218zM130 506v175h516v-175h-516zM307 1110q0 -71 81 -71q82 0 82 71v634q0 70 -81 71q-82 0 -82 -71v-634z" />
<glyph unicode="&#xbb;" horiz-adv-x="1305" d="M130 485v320l224 184l-224 190v330l556 -507zM619 485v320l224 184l-224 190v330l556 -507z" />
<glyph unicode="&#xbc;" horiz-adv-x="1609" d="M120 830v161h153v810h-153v161h316v-971h153v-161h-469zM439 0l723 1963h175l-722 -1963h-176zM955 276v142l284 707h207v-689h63v-160h-63v-276h-162v276h-329zM1115 436h169v429z" />
<glyph unicode="&#xbd;" horiz-adv-x="1685" d="M60 830v161h153v810h-153v161h316v-971h153v-161h-469zM379 0l723 1963h175l-722 -1963h-176zM1111 0v246q0 154 154 265q154 110 155 187v224q0 78 -71 78h-1q-72 0 -72 -78v-153h-165v153q0 241 237 241t237 -241v-228q0 -158 -155 -269q-154 -110 -154 -193v-69h309 v-163h-474z" />
<glyph unicode="&#xbe;" horiz-adv-x="1549" d="M100 1051v155h165v-156q0 -80 74 -80q75 0 75 80v211q0 63 -26 75q-15 6 -44 6h-57v164h70q23 0 35 7q22 13 22 71v172q0 63 -26 75q-15 6 -46 6q-8 0 -17 -1q-60 -2 -60 -80v-154h-165v155q0 168 97 218q68 35 139 35q66 0 135 -31q108 -46 108 -222v-174 q0 -114 -91 -161q91 -47 91 -161v-210q0 -151 -78 -206q-49 -35 -153 -38h-14q-92 0 -143 30q-91 52 -91 214zM379 0l723 1963h175l-722 -1963h-176zM895 276v142l284 707h207v-689h63v-160h-63v-276h-162v276h-329zM1055 436h169v429z" />
<glyph unicode="&#xbf;" horiz-adv-x="1053" d="M120 148v197q0 249 199 447t199 345v45h283v-69q0 -245 -199 -442t-199 -333v-190q0 -133 122 -133h2q123 0 123 133v263h283v-263q0 -413 -407 -413q-406 0 -406 413zM492 1404v325h325v-325h-325z" />
<glyph unicode="&#xc0;" horiz-adv-x="1051" d="M40 0l292 1962h388l291 -1962h-286l-51 400h-298l-51 -400h-285zM303 2293h222l112 -253h-177zM410 670h230l-115 912z" />
<glyph unicode="&#xc1;" horiz-adv-x="1051" d="M40 0l292 1962h388l291 -1962h-286l-51 400h-298l-51 -400h-285zM410 670h230l-115 912zM414 2040l112 253h222l-157 -253h-177z" />
<glyph unicode="&#xc2;" horiz-adv-x="1051" d="M40 0l292 1962h388l291 -1962h-286l-51 400h-298l-51 -400h-285zM224 2041l174 252h255l174 -252h-211l-90 119l-91 -119h-211zM410 670h230l-115 912z" />
<glyph unicode="&#xc3;" horiz-adv-x="1051" d="M40 0l292 1962h388l291 -1962h-286l-51 400h-298l-51 -400h-285zM182 2074l35 71q67 135 174 141h7q67 0 173 -66q51 -32 84 -32q28 0 43 23l41 67l130 -86l-41 -68q-64 -102 -158 -107h-7q-67 0 -171 66q-66 41 -79 43h-4q-28 0 -55 -54l-35 -71zM410 670h230l-115 912z " />
<glyph unicode="&#xc4;" horiz-adv-x="1051" d="M40 0l292 1962h388l291 -1962h-286l-51 400h-298l-51 -400h-285zM206 2051v242h242v-242h-242zM410 670h230l-115 912zM602 2051v242h243v-242h-243z" />
<glyph unicode="&#xc5;" horiz-adv-x="1051" d="M40 0l290 1951q-25 49 -25 124q0 220 220 220q221 0 221 -220q0 -74 -25 -123l290 -1952h-286l-51 400h-298l-51 -400h-285zM410 670h230l-115 912zM435 2075q0 -91 90 -91q91 0 91 91q0 90 -91 90q-90 0 -90 -90z" />
<glyph unicode="&#xc6;" horiz-adv-x="1458" d="M40 0l292 1962h1046v-279h-451v-893h387v-270h-387v-241h451v-279h-734v520h-242l-77 -520h-285zM443 790h201v892h-69z" />
<glyph unicode="&#xc7;" horiz-adv-x="1023" d="M110 381v1200q0 412 406 412q407 0 407 -412v-480h-283v480q0 132 -123 133h-2q-122 0 -122 -133v-1200q0 -133 123 -133q124 0 124 133v319h283v-319q0 -405 -394 -413l-24 -64q25 10 51 10q126 0 126 -119q0 -155 -184 -155q-100 0 -161 32l28 76q45 -18 120 -18 q67 0 67 65q0 56 -41 57q-31 0 -39 -17h-76l31 139q-317 42 -317 407z" />
<glyph unicode="&#xc8;" horiz-adv-x="944" d="M130 0v1962h734v-279h-451v-883h388v-280h-388v-241h451v-279h-734zM274 2293h222l112 -253h-177z" />
<glyph unicode="&#xc9;" horiz-adv-x="944" d="M130 0v1962h734v-279h-451v-883h388v-280h-388v-241h451v-279h-734zM386 2040l112 253h222l-157 -253h-177z" />
<glyph unicode="&#xca;" horiz-adv-x="944" d="M130 0v1962h734v-279h-451v-883h388v-280h-388v-241h451v-279h-734zM196 2041l174 252h255l174 -252h-211l-90 119l-91 -119h-211z" />
<glyph unicode="&#xcb;" horiz-adv-x="944" d="M130 0v1962h734v-279h-451v-883h388v-280h-388v-241h451v-279h-734zM178 2051v242h242v-242h-242zM574 2051v242h243v-242h-243z" />
<glyph unicode="&#xcc;" horiz-adv-x="553" d="M54 2293h222l112 -253h-177zM135 0v1962h283v-1962h-283z" />
<glyph unicode="&#xcd;" horiz-adv-x="553" d="M135 0v1962h283v-1962h-283zM165 2040l112 253h222l-157 -253h-177z" />
<glyph unicode="&#xce;" horiz-adv-x="553" d="M-25 2041l174 252h255l174 -252h-211l-90 119l-91 -119h-211zM135 0v1962h283v-1962h-283z" />
<glyph unicode="&#xcf;" horiz-adv-x="553" d="M-43 2051v242h242v-242h-242zM135 0v1962h283v-1962h-283zM353 2051v242h243v-242h-243z" />
<glyph unicode="&#xd0;" horiz-adv-x="1115" d="M58 876v211h124v875l436 -1q377 0 377 -412v-1137q0 -411 -377 -411q-6 0 -18 -1h-418v876h-124zM465 279h124q123 0 123 133v1137q0 134 -123 134h-124v-596h98v-211h-98v-597z" />
<glyph unicode="&#xd1;" horiz-adv-x="1073" d="M130 0v1962h233l307 -540v540h273v-1962h-273v912l-267 480v-1392h-273zM193 2074l35 71q67 135 174 141h7q67 0 173 -66q51 -32 84 -32q28 0 43 23l41 67l130 -86l-41 -68q-64 -102 -158 -107h-7q-67 0 -171 66q-66 41 -79 43h-4q-28 0 -55 -54l-35 -71z" />
<glyph unicode="&#xd2;" d="M110 381v1200q0 412 406 412q407 0 407 -412v-1200q0 -412 -407 -413q-406 0 -406 413zM294 2293h222l112 -253h-177zM393 381q0 -133 123 -133q124 0 124 133v1200q0 132 -123 133h-2q-122 0 -122 -133v-1200z" />
<glyph unicode="&#xd3;" d="M110 381v1200q0 412 406 412q407 0 407 -412v-1200q0 -412 -407 -413q-406 0 -406 413zM393 381q0 -133 123 -133q124 0 124 133v1200q0 132 -123 133h-2q-122 0 -122 -133v-1200zM405 2040l112 253h222l-157 -253h-177z" />
<glyph unicode="&#xd4;" d="M110 381v1200q0 412 406 412q407 0 407 -412v-1200q0 -412 -407 -413q-406 0 -406 413zM215 2041l174 252h255l174 -252h-211l-90 119l-91 -119h-211zM393 381q0 -133 123 -133q124 0 124 133v1200q0 132 -123 133h-2q-122 0 -122 -133v-1200z" />
<glyph unicode="&#xd5;" d="M110 381v1200q0 412 406 412q407 0 407 -412v-1200q0 -412 -407 -413q-406 0 -406 413zM173 2074l35 71q67 135 174 141h7q67 0 173 -66q51 -32 84 -32q28 0 43 23l41 67l130 -86l-41 -68q-64 -102 -158 -107h-7q-67 0 -171 66q-66 41 -79 43h-4q-28 0 -55 -54l-35 -71z M393 381q0 -133 123 -133q124 0 124 133v1200q0 132 -123 133h-2q-122 0 -122 -133v-1200z" />
<glyph unicode="&#xd6;" d="M110 381v1200q0 412 406 412q407 0 407 -412v-1200q0 -412 -407 -413q-406 0 -406 413zM197 2051v242h242v-242h-242zM393 381q0 -133 123 -133q124 0 124 133v1200q0 132 -123 133h-2q-122 0 -122 -133v-1200zM593 2051v242h243v-242h-243z" />
<glyph unicode="&#xd7;" horiz-adv-x="1047" d="M156 779l204 203l-203 203l164 164l203 -203l203 203l164 -165l-203 -202l203 -203l-164 -164l-203 202l-203 -203z" />
<glyph unicode="&#xd8;" horiz-adv-x="1053" d="M120 381v1200q0 412 406 412q88 0 156 -19l31 127h141l-46 -190q125 -102 125 -330v-1200q0 -412 -407 -413q-105 0 -182 27l-49 -201h-140l67 277q-102 103 -102 310zM403 819l210 868q-31 27 -86 27h-2q-122 0 -122 -133v-762zM418 303q29 -55 108 -55q124 0 124 133 v878z" />
<glyph unicode="&#xd9;" horiz-adv-x="1053" d="M120 381v1581h283v-1581q0 -133 123 -133q124 0 124 133v1581h283v-1581q0 -412 -407 -413q-406 0 -406 413zM304 2293h222l112 -253h-177z" />
<glyph unicode="&#xda;" horiz-adv-x="1053" d="M120 381v1581h283v-1581q0 -133 123 -133q124 0 124 133v1581h283v-1581q0 -412 -407 -413q-406 0 -406 413zM415 2040l112 253h222l-157 -253h-177z" />
<glyph unicode="&#xdb;" horiz-adv-x="1053" d="M120 381v1581h283v-1581q0 -133 123 -133q124 0 124 133v1581h283v-1581q0 -412 -407 -413q-406 0 -406 413zM225 2041l174 252h255l174 -252h-211l-90 119l-91 -119h-211z" />
<glyph unicode="&#xdc;" horiz-adv-x="1053" d="M120 381v1581h283v-1581q0 -133 123 -133q124 0 124 133v1581h283v-1581q0 -412 -407 -413q-406 0 -406 413zM207 2051v242h242v-242h-242zM603 2051v242h243v-242h-243z" />
<glyph unicode="&#xdd;" horiz-adv-x="1066" d="M40 1962h300l193 -1014l193 1014h300l-351 -1446v-516h-283v516zM422 2040l112 253h222l-157 -253h-177z" />
<glyph unicode="&#xde;" horiz-adv-x="1018" d="M130 0v1962h283v-327h92q6 0 18 -1h19q376 0 376 -412v-295q0 -304 -270 -392q-66 -21 -190 -21h-45v-514h-283zM413 793h64q59 0 82 9q76 31 76 125v295q0 134 -123 134h-99v-563z" />
<glyph unicode="&#xdf;" horiz-adv-x="1053" d="M130 0v1550q0 412 406 412q407 0 407 -412v-296q0 -193 -156 -273q156 -79 156 -273v-318q0 -411 -377 -411l-28 -1v279q122 0 122 133v318q0 94 -77 125q-23 9 -82 9h-88v-842h-283zM413 1121h88q59 0 82 9q77 30 77 124v296q0 132 -123 133h-2q-122 0 -122 -133v-429z " />
<glyph unicode="&#xe0;" d="M110 1101v480q0 412 407 412q406 0 406 -412v-1581h-253l-20 121q-86 -152 -254 -153q-138 0 -208.5 104t-70.5 255q0 496 523 547v707q0 133 -122 133h-2q-123 -1 -123 -133v-480h-283zM283 2292h222l112 -253h-177zM400 357q0 -128 57 -128q183 14 183 272v104 q-240 -60 -240 -248z" />
<glyph unicode="&#xe1;" d="M110 1101v480q0 412 407 412q406 0 406 -412v-1581h-253l-20 121q-86 -152 -254 -153q-138 0 -208.5 104t-70.5 255q0 496 523 547v707q0 133 -122 133h-2q-123 -1 -123 -133v-480h-283zM400 357q0 -128 57 -128q183 14 183 272v104q-240 -60 -240 -248zM404 2039 l112 253h222l-157 -253h-177z" />
<glyph unicode="&#xe2;" d="M110 1101v480q0 412 407 412q406 0 406 -412v-1581h-253l-20 121q-86 -152 -254 -153q-138 0 -208.5 104t-70.5 255q0 496 523 547v707q0 133 -122 133h-2q-123 -1 -123 -133v-480h-283zM218 2040l174 252h255l174 -252h-211l-90 119l-91 -119h-211zM400 357 q0 -128 57 -128q183 14 183 272v104q-240 -60 -240 -248z" />
<glyph unicode="&#xe3;" d="M110 1101v480q0 412 407 412q406 0 406 -412v-1581h-253l-20 121q-86 -152 -254 -153q-138 0 -208.5 104t-70.5 255q0 496 523 547v707q0 133 -122 133h-2q-123 -1 -123 -133v-480h-283zM182 2073l35 71q67 135 174 141h7q67 0 173 -66q51 -32 84 -32q28 0 43 23l41 67 l130 -86l-41 -68q-64 -102 -158 -107h-7q-67 0 -171 66q-66 41 -79 43h-4q-28 0 -55 -54l-35 -71zM400 357q0 -128 57 -128q183 14 183 272v104q-240 -60 -240 -248z" />
<glyph unicode="&#xe4;" d="M110 1101v480q0 412 407 412q406 0 406 -412v-1581h-253l-20 121q-86 -152 -254 -153q-138 0 -208.5 104t-70.5 255q0 496 523 547v707q0 133 -122 133h-2q-123 -1 -123 -133v-480h-283zM206 2050v242h242v-242h-242zM400 357q0 -128 57 -128q183 14 183 272v104 q-240 -60 -240 -248zM602 2050v242h243v-242h-243z" />
<glyph unicode="&#xe5;" horiz-adv-x="1051" d="M40 0l290 1951q-25 49 -25 124q0 220 220 220q221 0 221 -220q0 -74 -25 -123l290 -1952h-286l-51 400h-298l-51 -400h-285zM410 670h230l-115 912zM435 2075q0 -91 90 -91q91 0 91 91q0 90 -91 90q-90 0 -90 -90z" />
<glyph unicode="&#xe6;" horiz-adv-x="1458" d="M40 0l292 1962h1046v-279h-451v-893h387v-270h-387v-241h451v-279h-734v520h-242l-77 -520h-285zM443 790h201v892h-69z" />
<glyph unicode="&#xe7;" horiz-adv-x="1023" d="M110 381v1200q0 412 406 412q407 0 407 -412v-480h-283v480q0 132 -123 133h-2q-122 0 -122 -133v-1200q0 -133 123 -133q124 0 124 133v319h283v-319q0 -401 -386 -413l-25 -64q25 10 51 10q126 0 126 -119q0 -155 -184 -155q-100 0 -161 32l28 76q45 -18 120 -18 q67 0 67 65q0 56 -41 57q-31 0 -39 -17h-76l31 138q-324 39 -324 408z" />
<glyph unicode="&#xe8;" horiz-adv-x="944" d="M130 0v1962h734v-279h-451v-883h388v-280h-388v-241h451v-279h-734zM274 2292h222l112 -253h-177z" />
<glyph unicode="&#xe9;" horiz-adv-x="944" d="M130 0v1962h734v-279h-451v-883h388v-280h-388v-241h451v-279h-734zM386 2039l112 253h222l-157 -253h-177z" />
<glyph unicode="&#xea;" horiz-adv-x="944" d="M130 0v1962h734v-279h-451v-883h388v-280h-388v-241h451v-279h-734zM196 2040l174 252h255l174 -252h-211l-90 119l-91 -119h-211z" />
<glyph unicode="&#xeb;" horiz-adv-x="944" d="M130 0v1962h734v-279h-451v-883h388v-280h-388v-241h451v-279h-734zM178 2050v242h242v-242h-242zM574 2050v242h243v-242h-243z" />
<glyph unicode="&#xec;" horiz-adv-x="553" d="M54 2292h222l112 -253h-177zM135 0v1962h283v-1962h-283z" />
<glyph unicode="&#xed;" horiz-adv-x="553" d="M135 0v1962h283v-1962h-283zM165 2039l112 253h222l-157 -253h-177z" />
<glyph unicode="&#xee;" horiz-adv-x="553" d="M-25 2040l174 252h255l174 -252h-211l-90 119l-91 -119h-211zM135 0v1962h283v-1962h-283z" />
<glyph unicode="&#xef;" horiz-adv-x="553" d="M-43 2050v242h242v-242h-242zM135 0v1962h283v-1962h-283zM353 2050v242h243v-242h-243z" />
<glyph unicode="&#xf0;" horiz-adv-x="1115" d="M58 876v211h124v875l436 -1q377 0 377 -412v-1137q0 -411 -377 -411q-6 0 -18 -1h-418v876h-124zM465 279h124q123 0 123 133v1137q0 134 -123 134h-124v-596h98v-211h-98v-597z" />
<glyph unicode="&#xf1;" horiz-adv-x="1073" d="M130 0v1962h233l307 -540v540h273v-1962h-273v912l-267 480v-1392h-273zM193 2073l35 71q67 135 174 141h7q67 0 173 -66q51 -32 84 -32q28 0 43 23l41 67l130 -86l-41 -68q-64 -102 -158 -107h-7q-67 0 -171 66q-66 41 -79 43h-4q-28 0 -55 -54l-35 -71z" />
<glyph unicode="&#xf2;" d="M110 381v1200q0 412 406 412q407 0 407 -412v-1200q0 -412 -407 -413q-406 0 -406 413zM294 2292h222l112 -253h-177zM393 381q0 -133 123 -133q124 0 124 133v1200q0 132 -123 133h-2q-122 0 -122 -133v-1200z" />
<glyph unicode="&#xf3;" d="M110 381v1200q0 412 406 412q407 0 407 -412v-1200q0 -412 -407 -413q-406 0 -406 413zM393 381q0 -133 123 -133q124 0 124 133v1200q0 132 -123 133h-2q-122 0 -122 -133v-1200zM405 2039l112 253h222l-157 -253h-177z" />
<glyph unicode="&#xf4;" d="M110 381v1200q0 412 406 412q407 0 407 -412v-1200q0 -412 -407 -413q-406 0 -406 413zM215 2040l174 252h255l174 -252h-211l-90 119l-91 -119h-211zM393 381q0 -133 123 -133q124 0 124 133v1200q0 132 -123 133h-2q-122 0 -122 -133v-1200z" />
<glyph unicode="&#xf5;" d="M110 381v1200q0 412 406 412q407 0 407 -412v-1200q0 -412 -407 -413q-406 0 -406 413zM173 2073l35 71q67 135 174 141h7q67 0 173 -66q51 -32 84 -32q28 0 43 23l41 67l130 -86l-41 -68q-64 -102 -158 -107h-7q-67 0 -171 66q-66 41 -79 43h-4q-28 0 -55 -54l-35 -71z M393 381q0 -133 123 -133q124 0 124 133v1200q0 132 -123 133h-2q-122 0 -122 -133v-1200z" />
<glyph unicode="&#xf6;" d="M110 381v1200q0 412 406 412q407 0 407 -412v-1200q0 -412 -407 -413q-406 0 -406 413zM197 2050v242h242v-242h-242zM393 381q0 -133 123 -133q124 0 124 133v1200q0 132 -123 133h-2q-122 0 -122 -133v-1200zM593 2050v242h243v-242h-243z" />
<glyph unicode="&#xf7;" horiz-adv-x="1045" d="M120 866v234h805v-234h-805zM360 319v325h324v-325h-324zM360 1324v324h324v-324h-324z" />
<glyph unicode="&#xf8;" horiz-adv-x="1053" d="M119 -318l114 372q-113 91 -113 282v1057q0 364 406 364q128 0 216 -36l70 231l140 -9l-93 -305q74 -89 74 -245v-1057q0 -363 -407 -363q-96 0 -170 20l-98 -320zM403 612l246 805q-12 93 -122 94q-124 0 -124 -118v-781zM434 248q31 -29 92 -29q124 0 124 117v619z" />
<glyph unicode="&#xf9;" horiz-adv-x="1053" d="M120 381v1581h283v-1581q0 -133 123 -133q124 0 124 133v1581h283v-1581q0 -412 -407 -413q-406 0 -406 413zM304 2292h222l112 -253h-177z" />
<glyph unicode="&#xfa;" horiz-adv-x="1053" d="M120 381v1581h283v-1581q0 -133 123 -133q124 0 124 133v1581h283v-1581q0 -412 -407 -413q-406 0 -406 413zM415 2039l112 253h222l-157 -253h-177z" />
<glyph unicode="&#xfb;" horiz-adv-x="1053" d="M120 381v1581h283v-1581q0 -133 123 -133q124 0 124 133v1581h283v-1581q0 -412 -407 -413q-406 0 -406 413zM225 2040l174 252h255l174 -252h-211l-90 119l-91 -119h-211z" />
<glyph unicode="&#xfc;" horiz-adv-x="1053" d="M120 381v1581h283v-1581q0 -133 123 -133q124 0 124 133v1581h283v-1581q0 -412 -407 -413q-406 0 -406 413zM207 2050v242h242v-242h-242zM603 2050v242h243v-242h-243z" />
<glyph unicode="&#xfd;" horiz-adv-x="1066" d="M40 1962h300l193 -1014l193 1014h300l-351 -1446v-516h-283v516zM422 2039l112 253h222l-157 -253h-177z" />
<glyph unicode="&#xfe;" horiz-adv-x="1018" d="M130 0v1962h283v-327h92q6 0 18 -1h19q376 0 376 -412v-295q0 -304 -270 -392q-66 -21 -190 -21h-45v-514h-283zM413 793h64q59 0 82 9q76 31 76 125v295q0 134 -123 134h-99v-563z" />
<glyph unicode="&#xff;" horiz-adv-x="1066" d="M40 1962h300l193 -1014l193 1014h300l-351 -1446v-516h-283v516zM214 2050v242h242v-242h-242zM610 2050v242h243v-242h-243z" />
<glyph unicode="&#x152;" horiz-adv-x="1370" d="M110 381v1200q0 412 406 412q112 0 193 -31h651v-279h-444q7 -47 7 -102v-782h374v-280h-374v-138q0 -55 -7 -102h444v-279h-650q-81 -32 -194 -32q-406 0 -406 413zM393 381q0 -133 123 -133q82 0 110 59v1348q-27 58 -109 59h-2q-122 0 -122 -133v-1200z" />
<glyph unicode="&#x153;" horiz-adv-x="1370" d="M110 381v1200q0 412 406 412q112 0 193 -31h651v-279h-444q7 -47 7 -102v-782h374v-280h-374v-138q0 -55 -7 -102h444v-279h-650q-81 -32 -194 -32q-406 0 -406 413zM393 381q0 -133 123 -133q82 0 110 59v1348q-27 58 -109 59h-2q-122 0 -122 -133v-1200z" />
<glyph unicode="&#x2c6;" horiz-adv-x="956" d="M170 2040l174 252h255l174 -252h-211l-90 119l-91 -119h-211z" />
<glyph unicode="&#x2dc;" horiz-adv-x="947" d="M130 2073l35 71q67 135 174 141h7q67 0 173 -66q51 -32 84 -32q28 0 43 23l41 67l130 -86l-41 -68q-64 -102 -158 -107h-7q-67 0 -171 66q-66 41 -79 43h-4q-28 0 -55 -54l-35 -71z" />
<glyph unicode="&#x2000;" horiz-adv-x="1147" />
<glyph unicode="&#x2001;" horiz-adv-x="2295" />
<glyph unicode="&#x2002;" horiz-adv-x="1147" />
<glyph unicode="&#x2003;" horiz-adv-x="2295" />
<glyph unicode="&#x2004;" horiz-adv-x="765" />
<glyph unicode="&#x2005;" horiz-adv-x="573" />
<glyph unicode="&#x2006;" horiz-adv-x="382" />
<glyph unicode="&#x2007;" horiz-adv-x="382" />
<glyph unicode="&#x2008;" horiz-adv-x="286" />
<glyph unicode="&#x2009;" horiz-adv-x="459" />
<glyph unicode="&#x200a;" horiz-adv-x="127" />
<glyph unicode="&#x2010;" horiz-adv-x="786" d="M50 841v233h686v-233h-686z" />
<glyph unicode="&#x2011;" horiz-adv-x="786" d="M50 841v233h686v-233h-686z" />
<glyph unicode="&#x2012;" horiz-adv-x="786" d="M50 841v233h686v-233h-686z" />
<glyph unicode="&#x2013;" horiz-adv-x="1172" d="M50 841v233h1060v-233h-1060z" />
<glyph unicode="&#x2014;" horiz-adv-x="2048" d="M50 841v233h1963v-233h-1963z" />
<glyph unicode="&#x2018;" horiz-adv-x="557" d="M130 1311v288l107 364h184l-58 -327h117v-325h-350z" />
<glyph unicode="&#x2019;" horiz-adv-x="610" d="M130 1638v325h350v-288l-107 -364h-184l58 327h-117z" />
<glyph unicode="&#x201a;" horiz-adv-x="557" d="M120 0v325h351v-287l-108 -365h-183l58 327h-118z" />
<glyph unicode="&#x201c;" horiz-adv-x="1047" d="M130 1311v288l107 364h184l-58 -327h117v-325h-350zM620 1311v288l107 364h184l-58 -327h117v-325h-350z" />
<glyph unicode="&#x201d;" horiz-adv-x="1100" d="M130 1638v325h350v-288l-107 -364h-184l58 327h-117zM620 1638v325h350v-288l-107 -364h-184l58 327h-117z" />
<glyph unicode="&#x201e;" horiz-adv-x="1100" d="M130 1v325h350v-288l-107 -364h-184l58 327h-117zM620 1v325h350v-288l-107 -364h-184l58 327h-117z" />
<glyph unicode="&#x2022;" horiz-adv-x="987" d="M130 983q0 151 106 257q107 107 257 107q151 0 258 -107q106 -106 106 -257q0 -150 -106 -257q-107 -106 -258 -106q-150 0 -257 106q-106 107 -106 257z" />
<glyph unicode="&#x2026;" horiz-adv-x="2048" d="M120 0v325h325v-325h-325zM803 0v325h325v-325h-325zM1486 0v325h325v-325h-325z" />
<glyph unicode="&#x202f;" horiz-adv-x="459" />
<glyph unicode="&#x2039;" horiz-adv-x="816" d="M130 1002l556 507v-330l-224 -190l224 -184v-320z" />
<glyph unicode="&#x203a;" horiz-adv-x="816" d="M130 485v320l224 184l-224 190v330l556 -507z" />
<glyph unicode="&#x205f;" horiz-adv-x="573" />
<glyph unicode="&#x20ac;" horiz-adv-x="1094" d="M30 743v158h141v160h-141v158h141v362q0 413 406 413q407 0 407 -413v-263h-283v263q0 133 -123 133h-2q-122 0 -122 -133v-362h382v-158h-382v-160h382v-158h-382v-362q0 -133 123 -133q124 0 124 133v264h283v-264q0 -412 -407 -412q-406 0 -406 412v362h-141z" />
<glyph unicode="&#x2122;" horiz-adv-x="1108" d="M60 1617v112h366v-112h-119v-673h-128v673h-119zM479 945v785h127l150 -538l148 538h128v-785h-122v440l-109 -440h-87l-112 440v-440h-123z" />
<glyph unicode="&#x25fc;" horiz-adv-x="1960" d="M0 0v1960h1960v-1960h-1960z" />
</font>
</defs>
</svg>
