<?xml version="1.0" standalone="no"?>
<!DOCTYPE svg PUBLIC "-//W3C//DTD SVG 1.1//EN" "http://www.w3.org/Graphics/SVG/1.1/DTD/svg11.dtd" >
<svg xmlns="http://www.w3.org/2000/svg">
<metadata></metadata>
<defs>
<font id="klillregular" horiz-adv-x="1069" >
<font-face units-per-em="2048" ascent="1638" descent="-410" />
<missing-glyph horiz-adv-x="585" />
<glyph horiz-adv-x="0" />
<glyph horiz-adv-x="682" />
<glyph horiz-adv-x="614" d="M6 1393h100q27 -78 83.5 -118t117.5 -40t116.5 40t84.5 118h100q-23 -90 -69.5 -151.5t-106 -92.5t-125.5 -31t-125 30t-106 91t-70 154z" />
<glyph horiz-adv-x="614" d="M229 1257q0 39 25 57.5t53 18.5q29 0 53.5 -18.5t24.5 -57.5t-24.5 -58t-53.5 -19t-53.5 19.5t-24.5 57.5z" />
<glyph horiz-adv-x="614" d="M106 1286q0 -66 30 -109.5t75 -66.5t96 -23t96.5 23t75 66.5t29.5 109.5t-29.5 110t-75 66.5t-96.5 22.5t-96 -22.5t-75 -66.5t-30 -110zM186 1286q0 59 38 89t83 30t83 -30t38 -89h-2q0 -59 -38 -89t-83 -30q-43 0 -81 30t-38 89z" />
<glyph unicode="&#xa;" horiz-adv-x="614" d="M-14 1102l194 319l189 4l-273 -323h-110zM250 1102l196 319l189 4l-273 -323h-112z" />
<glyph horiz-adv-x="614" d="M110.5 -207q6.5 76 78 150.5t221.5 111.5l51 -28q-92 -43 -142.5 -90.5t-68 -90.5t-5 -75.5t46.5 -48t85 -8.5t112 46l15 -88q-80 -68 -193 -67q-102 0 -154.5 56t-46 132z" />
<glyph horiz-adv-x="614" d="M0 1423l240 -331h137l237 331h-127l-180 -211l-180 211h-127z" />
<glyph unicode="&#xd;" horiz-adv-x="464" d="M170 -20l125 22v1006q-31 -12 -62.5 -22.5t-62.5 -20.5v-985z" />
<glyph horiz-adv-x="354" d="M-385 -55h117l1007 1493h-118z" />
<glyph horiz-adv-x="1048" d="M90 864h150v-884l127 22v864h243v117h-243q0 72 1 138.5t20.5 116.5t67.5 81t140 31q18 0 39.5 -12.5t41 -30t36 -37t28.5 -33.5l39 125q-35 35 -84 65.5t-102 30.5q-168 0 -261 -94t-93 -262v-121h-134zM803 -20l125 22v1018q-25 -16 -53.5 -25.5t-57.5 -13.5l-14 10 v-1011zM805 1200q0 -37 23.5 -55.5t52.5 -18.5q31 0 54 18.5t23 55.5t-23.5 56.5t-53.5 19.5q-29 0 -52.5 -18.5t-23.5 -57.5z" />
<glyph horiz-adv-x="1048" d="M104 864h154v-884l127 22v864h242v117h-244q0 68 1 131.5t20.5 111.5t64.5 77.5t133 29.5q29 0 55.5 -6t55.5 -14l-19 127q-16 8 -35.5 13t-37.5 5q-164 0 -264.5 -83t-100.5 -253v-141h-135zM815 -20l129 22v1462q-59 -23 -129 -37v-1447z" />
<glyph horiz-adv-x="923" d="M2 428l180 123v-561h721q-4 35 4.5 65.5t16.5 63.5h-609v528l285 195v131l-285 -195v649l-135 -14v-731l-178 -123v-131z" />
<glyph horiz-adv-x="464" d="M2 492l166 126v-638l125 22v713l170 129v127l-170 -129v606q-35 0 -62.5 -5t-62.5 -18v-680l-166 -127v-126z" />
<glyph horiz-adv-x="1265" d="M41 16l12 -26h1153l19 127h-949l928 1263l-10 31h-1092l-20 -129h887zM319 1812l240 -331h137l238 331h-127l-180 -210l-181 210h-127z" />
<glyph horiz-adv-x="962" d="M37 16l10 -26h860l19 123h-660l660 839l-8 27h-803l-17 -125h598zM180 1423l242 -331h135l240 331h-127l-181 -211l-182 211h-127z" />
<glyph unicode=" "  horiz-adv-x="585" />
<glyph unicode="&#x09;" horiz-adv-x="585" />
<glyph unicode="&#xa0;" horiz-adv-x="585" />
<glyph unicode="!" horiz-adv-x="454" d="M147 70q0 -39 25 -58.5t53 -19.5q29 0 53.5 19.5t24.5 58.5t-24.5 57t-53.5 18t-53.5 -18t-24.5 -57zM154 1438l18 -1078l107 9l28 1081z" />
<glyph unicode="&#x22;" horiz-adv-x="671" d="M133 1146q-4 134 0 269h143q2 -29 3 -59v-62v-120h2q0 -74 -6.5 -149t-10.5 -148h-119q-8 135 -12 269zM395 1415h144q4 -137 -0.5 -269t-12.5 -269h-118q-8 135 -12.5 269t-0.5 269z" />
<glyph unicode="#" horiz-adv-x="1232" d="M100 428h191l-76 -438h125l76 440h309l-76 -440h125l76 440h252l4 119h-234l56 325h200l5 119h-183l76 432h-125l-76 -434h-309l76 434h-125l-76 -434h-260l-4 -119h242l-56 -325h-209zM438 547l56 327h309l-55 -327h-310z" />
<glyph unicode="$" horiz-adv-x="1091" d="M119 209q72 -84 171 -128t208 -52v-201l112 -4v205q74 8 139.5 35.5t114.5 71.5t78 106.5t29 142.5q0 113 -52.5 179.5t-131 107.5t-170 66.5t-170 57t-131 79t-52.5 131.5q0 59 25.5 101t66.5 68.5t92.5 39t102.5 12.5q92 0 178 -37t154 -100l43 110q-66 61 -148 96 t-170 43l2 97l-112 4l-2 -101q-72 -6 -136.5 -32.5t-113.5 -70.5t-79 -105.5t-30 -137.5q0 -113 52.5 -178t131 -106t171 -66t171 -55.5t131 -79.5t52.5 -135q0 -57 -25.5 -100.5t-65.5 -73t-91.5 -44t-102.5 -14.5q-35 0 -93 18.5t-117.5 46t-112 59.5t-72.5 59z" />
<glyph unicode="%" horiz-adv-x="1613" d="M86 1073q0 -72 27.5 -136.5t75 -112.5t112 -76.5t135.5 -28.5q72 0 135.5 28.5t110.5 76.5t74.5 111.5t27.5 135.5t-27.5 135.5t-75.5 111.5t-111.5 75.5t-135.5 27.5t-134 -27.5t-110.5 -75.5t-76 -111.5t-27.5 -133.5zM197 1071q0 78 35.5 130t88 79t115 28t114.5 -26 t88 -80t36 -135q0 -47 -18.5 -90t-50.5 -75t-75 -51.5t-90 -19.5q-49 0 -93 19.5t-77.5 51.5t-53 76t-19.5 93zM246 -39h125l985 1456h-125q-233 -375 -483 -734t-502 -722zM829 330q0 -72 28 -135.5t75 -111.5t111.5 -77t136.5 -29t135 28t110.5 76t75 111.5t27.5 135.5 t-27.5 135t-76 111.5t-112 76t-134.5 27.5q-72 0 -134.5 -27.5t-110.5 -76t-76 -112t-28 -132.5zM940 328q0 78 36 130t88 78.5t114.5 27.5t115 -25.5t88 -79.5t35.5 -135q0 -78 -35.5 -129.5t-88 -77t-115 -24.5t-114.5 27.5t-88 79t-36 128.5z" />
<glyph unicode="&#x26;" horiz-adv-x="1300" d="M68 317q0 -78 27.5 -141t76.5 -108t115.5 -70t142.5 -25q68 0 130.5 21.5t119.5 56.5t108.5 80t96.5 92l219 -243l137 36l-272 303q66 78 121 162t108 170l-121 41q-86 -145 -190 -276l-297 334q51 31 102 70.5t92 88.5t67 106.5t26 121.5q0 63 -25 114.5t-66 88t-95 56 t-116 19.5q-68 0 -127 -22.5t-103 -63.5t-70.5 -97t-26.5 -126q0 -96 45 -180t106 -154q-61 -37 -121.5 -83t-106.5 -103.5t-74.5 -124t-28.5 -144.5zM205 328q0 61 25.5 113.5t66.5 95.5t90 77.5t98 63.5l316 -359q-37 -39 -77 -77.5t-85 -70.5t-95 -51.5t-108 -19.5 q-102 0 -166.5 61.5t-64.5 166.5zM377 1102q0 84 53 139t139 55q35 0 68 -12t57.5 -34.5t40 -52.5t15.5 -67q0 -49 -22.5 -93t-57.5 -80.5t-77 -66.5t-83 -50q-47 49 -90 119.5t-43 142.5z" />
<glyph unicode="'" horiz-adv-x="499" d="M178 1146q-4 134 0 269h144q4 -137 -0.5 -269t-12.5 -269h-119q-8 135 -12 269z" />
<glyph unicode="(" horiz-adv-x="727" d="M97 516q1 -172 51.5 -336t152.5 -308t254 -253l82 62q-139 106 -230.5 241t-138.5 285.5t-46 308.5t46 308.5t138.5 285.5t230.5 242l-82 61q-154 -109 -255 -253t-152.5 -308t-50.5 -336z" />
<glyph unicode=")" horiz-adv-x="727" d="M90 -319l82 -62q152 109 254 253t152.5 308t50.5 336t-50.5 336t-152.5 308.5t-254 252.5l-82 -61q137 -106 229.5 -241.5t138.5 -286t46 -308.5t-45 -308.5t-138.5 -285.5t-230.5 -241z" />
<glyph unicode="*" horiz-adv-x="980" d="M111 879l299 149l-299 150l59 106q68 -51 138.5 -95t142.5 -91l-19 336h117l-19 -336q72 47 142.5 91t138.5 95l59 -106l-299 -150l299 -149l-59 -107q-68 51 -138.5 95t-142.5 91l19 -335h-117l19 335q-72 -47 -142.5 -91t-138.5 -95z" />
<glyph unicode="+" horiz-adv-x="1335" d="M131 559h477v-475h121v477h475v121h-477v469h-121v-471h-475v-121z" />
<glyph unicode="," horiz-adv-x="483" d="M121 -195l106 -41l135 355l-106 41z" />
<glyph unicode="-" horiz-adv-x="706" d="M92 430l522 2v113h-522v-115z" />
<glyph unicode="." horiz-adv-x="464" d="M156 70q0 -37 23.5 -56.5t51.5 -19.5q31 0 54.5 18.5t23.5 57.5q0 37 -23.5 56t-54.5 19q-29 0 -52 -18t-23 -57z" />
<glyph unicode="/" horiz-adv-x="618" d="M16 -37h119l467 1475h-119z" />
<glyph unicode="0" d="M78 702q0 -104 22.5 -232t74.5 -240.5t140 -189.5t220 -77q129 0 217 76t141 187.5t75.5 238.5t22.5 229q0 104 -21.5 232.5t-74.5 242t-141 190.5t-219 77q-86 0 -154 -35t-119 -94.5t-86 -135t-56.5 -156.5t-31.5 -163t-10 -150zM215 694q0 47 6 110.5t21.5 131.5 t39 134.5t59.5 118.5t84 85t110 33q61 0 108 -32t83 -83t60.5 -116.5t40 -133.5t21.5 -130.5t6 -109.5t-6 -110.5t-21.5 -131t-40 -133t-60.5 -117.5t-83 -85t-108 -33t-108.5 32t-83.5 83t-60.5 116.5t-39 132t-21.5 130t-7 108.5z" />
<glyph unicode="1" d="M276 1282l23 -127l182 100v-1153h-190v-112h502v114h-177v1348z" />
<glyph unicode="2" d="M74 1124l100 -57q31 94 89.5 149.5t128 77t141 11t130 -48t96.5 -102t38 -148.5q0 -66 -18.5 -126.5t-48.5 -116.5t-67.5 -108.5t-76.5 -101.5q-113 -141 -235 -273.5t-251 -261.5v-28h883l12 127h-626q82 88 159.5 179t155.5 183q43 51 87 110.5t81 126t59.5 135.5 t22.5 138q0 94 -34 176t-93 141.5t-140 94.5t-175 35q-70 0 -136.5 -22.5t-124 -64.5t-98.5 -99.5t-59 -125.5z" />
<glyph unicode="3" d="M117 133q33 -43 78 -74.5t96 -53t105.5 -32t107.5 -10.5q127 0 219 48t147.5 123t73 166t-3 178t-80 159t-160.5 108q92 39 146.5 106t71 143.5t-3 155.5t-71.5 142.5t-136 103.5t-197 40q-100 0 -195.5 -40t-164.5 -114l49 -111q59 61 138 99.5t167 38.5q82 0 146.5 -36 t101 -91.5t40 -120t-33.5 -120.5t-122 -97t-224 -47v-121q80 0 152.5 -10.5t128 -43t88 -91t32.5 -152.5q0 -72 -24.5 -125t-67.5 -90t-101.5 -55.5t-125.5 -18.5q-90 0 -171 40t-137 110z" />
<glyph unicode="4" d="M49 457h617v-482l135 23v461h209l10 119h-219v880l-35 -4l-717 -969v-28zM250 578l416 567v-567h-416z" />
<glyph unicode="5" d="M104 123q72 -84 179.5 -122t214.5 -38q154 0 257 68.5t155.5 172t53.5 223.5t-49.5 223.5t-155 172t-259.5 68.5q-76 0 -140 -21v414h496l18 125h-647v-713q55 33 118 52.5t128 19.5q121 0 200 -50t117.5 -126t36.5 -163t-39.5 -163t-111.5 -126t-182 -50 q-94 0 -182.5 43t-151.5 111z" />
<glyph unicode="6" d="M96 485q0 -100 29 -194t84 -167t138 -117t194 -44q141 0 237 67.5t144.5 169t49.5 219.5t-45 219t-139.5 168.5t-234.5 67.5q-78 0 -147.5 -31.5t-122.5 -84.5q70 188 200.5 341.5t288.5 272.5l-90 86q-109 -82 -213 -191.5t-187 -235.5t-134.5 -265t-51.5 -281zM229 510 q0 68 45 122t113 83.5t145.5 34t145 -27.5t113 -103.5t45.5 -192.5q0 -109 -45.5 -185.5t-113 -115.5t-145 -38t-145.5 46t-113 138.5t-45 238.5z" />
<glyph unicode="7" d="M74 1282h737l-539 -1290q35 4 70 0t68 -12l589 1429h-911z" />
<glyph unicode="8" d="M108.5 457q-16.5 -86 5 -173t77 -159t142.5 -117t204 -45q115 0 201.5 45t142 116t77 159t6 174t-69.5 159.5t-151 116.5q88 51 135.5 123t57.5 149.5t-13.5 155.5t-74.5 138.5t-128 98.5t-175 38q-106 0 -187.5 -39t-134.5 -102.5t-75.5 -141.5t-11.5 -156.5 t60.5 -149.5t137.5 -118q-98 -41 -153.5 -113.5t-72 -158.5zM238 371q0 100 44 165.5t109.5 98.5t143.5 33t143 -33t109 -97.5t44 -158.5q0 -96 -44 -159.5t-109.5 -95.5t-142.5 -32q-78 0 -143.5 31t-109.5 93.5t-44 154.5zM270 1034q0 90 39 151.5t98.5 91.5t128 31 t128 -29t98.5 -89.5t39 -147.5t-39 -146t-98.5 -87t-128.5 -29q-68 0 -127.5 29t-98.5 85t-39 140z" />
<glyph unicode="9" d="M98 981q-2 -119 44 -219t139.5 -168t232.5 -68q74 0 144.5 29t125.5 78q-35 -90 -88 -173t-117.5 -160t-137 -145.5t-146.5 -125.5l88 -88q109 84 215.5 191.5t189 232t134 262t51.5 282.5q0 104 -27.5 199.5t-83 168.5t-140.5 116t-198 43q-141 0 -235 -68t-141.5 -168 t-49.5 -219zM233 965q0 63 18.5 124.5t54.5 110.5t89.5 79t124.5 30q92 0 153.5 -36t96.5 -95.5t49.5 -135t14.5 -153.5q0 -70 -44.5 -123t-112 -83t-144 -32t-144 30t-112 101.5t-44.5 182.5z" />
<glyph unicode=":" horiz-adv-x="483" d="M164 70q0 37 23.5 56t53 20t53 -18t23.5 -58h2q0 -39 -24.5 -57.5t-52.5 -18.5q-29 0 -53.5 18.5t-24.5 57.5zM182 684q0 39 23.5 58.5t53.5 18.5t53.5 -20.5t23.5 -56.5t-23.5 -56.5t-53.5 -20.5t-53.5 17.5t-23.5 59.5z" />
<glyph unicode=";" horiz-adv-x="483" d="M104 -195l105 -41l137 355l-106 41zM223 684q0 -39 23.5 -58.5t53.5 -18.5t53.5 20.5t23.5 56.5t-23.5 56.5t-53.5 20.5t-53.5 -18.5t-23.5 -58.5z" />
<glyph unicode="&#x3c;" horiz-adv-x="1335" d="M129 563l1077 -473v133l-905 393l905 394v133l-1077 -473v-107z" />
<glyph unicode="=" horiz-adv-x="1335" d="M131 328h1073v123h-1073v-123zM131 782l1073 2v121h-1073v-123z" />
<glyph unicode="&#x3e;" horiz-adv-x="1335" d="M129 90l1077 473v107l-1077 473v-133l905 -394l-905 -393v-133z" />
<glyph unicode="?" horiz-adv-x="788" d="M66 1235l75 -74h19q41 96 112.5 136t142 32t122 -63.5t51.5 -149.5q0 -92 -28 -152.5t-66.5 -106.5t-81.5 -87t-72 -95t-36 -131t24 -194l118 23q-27 90 -17.5 151.5t40.5 110.5t74 92t83 95t67.5 121t27.5 167t-37 170t-95.5 113t-131 52t-145 -8.5t-138 -69.5 t-108.5 -132zM326 70q0 -39 23.5 -57.5t51.5 -18.5q31 0 54.5 19.5t23.5 56.5t-23.5 56t-54.5 19q-29 0 -52 -18t-23 -57z" />
<glyph unicode="@" horiz-adv-x="1683" d="M84 363.5q16 -136.5 79.5 -257t176.5 -219t278 -153.5q66 -23 135.5 -36t141.5 -15l25 110q-154 -2 -286 48t-228.5 143.5t-151.5 222.5t-55 285q0 141 52 270t144 226t217 154.5t271 57.5q117 0 226.5 -42t192 -117.5t133 -178t50.5 -225.5q0 -102 -32 -192.5t-79 -159 t-98 -112.5t-92 -54t-60.5 16.5t-1.5 97.5l178 703h-137l-30 -127q-47 96 -122 136t-160 34t-170 -53t-154.5 -126t-112.5 -184.5t-43 -228.5q0 -145 63.5 -240.5t156.5 -129t197.5 -4t188.5 131.5q6 -27 17.5 -52t27.5 -46.5t39.5 -35t54.5 -13.5q111 0 201 62.5 t154.5 156.5t99.5 204.5t35 209.5q0 150 -60.5 273.5t-161 213.5t-232.5 140.5t-275 50.5q-162 0 -294 -55.5t-233.5 -148.5t-166 -216t-90 -256t-9.5 -269.5zM516 385q0 70 24.5 151.5t69.5 153.5t109.5 120t144.5 48q49 0 86 -22.5t63.5 -57.5t40 -80t13.5 -88 q0 -68 -24.5 -151.5t-70.5 -157.5t-110.5 -124t-144.5 -50q-53 0 -91 22.5t-62.5 59.5t-36 83t-11.5 93z" />
<glyph unicode="A" horiz-adv-x="1411" d="M-4 -8l143 -19l254 539h631l256 -539l135 19l-680 1442h-41zM453 637l254 532l254 -532h-508z" />
<glyph unicode="B" horiz-adv-x="1101" d="M117 -10h397q143 0 242.5 46t156 117.5t70.5 158.5q5 31 5 61q0 55 -16 108q-26 82 -91.5 148.5t-165.5 97.5q86 47 128 126t42 177q0 111 -35 182.5t-94.5 114.5t-138 61.5t-163.5 23.5q-53 3 -107 3q-32 0 -65 -1q-87 -3 -165 -3v-1421zM252 117v530q56 0 120 2 q22 1 43 1q43 0 87 -3q66 -4 126 -17.5t107 -45t75 -83.5t28 -132q0 -74 -30 -122t-79 -76t-111 -40t-128 -15q-39 -2 -78 -2q-24 0 -50 1q-62 2 -110 2zM252 772v512q78 0 164 1h8q82 -1 150 -21q72 -22 119.5 -75.5t47.5 -164.5h-2q0 -104 -49 -156.5t-122.5 -74 t-159.5 -21.5h-156z" />
<glyph unicode="C" horiz-adv-x="1308" d="M84 700q0 -164 56.5 -299t155.5 -232t236.5 -151.5t298.5 -54.5q98 0 196.5 27.5t184.5 75.5l13 157q-92 -59 -194.5 -94t-211.5 -35q-147 0 -257.5 52.5t-184.5 137.5t-110 193.5t-36 220.5q0 115 37 223.5t111 193.5t183.5 137.5t254.5 52.5q109 0 209 -35t193 -88 l-13 159q-84 47 -181 72t-194 25q-154 0 -289.5 -56.5t-237 -156t-161 -234.5t-59.5 -291z" />
<glyph unicode="D" horiz-adv-x="1429" d="M133 -10h432q182 0 320.5 61.5t229.5 160.5t137 227q46 127 47 261v6q0 131 -45 256q-46 128 -137 227t-228 160.5t-320 61.5h-436v-1421zM268 117v1167h281q135 0 245.5 -40t190.5 -115.5t123 -184t43 -246.5q0 -135 -47 -242.5t-129 -183t-194.5 -115.5t-243.5 -40 h-269z" />
<glyph unicode="E" horiz-adv-x="1058" d="M119 -10h809l12 129h-686v526h604v127h-604v512h661l-14 127h-782v-1421z" />
<glyph unicode="F" horiz-adv-x="892" d="M100 -16l138 14v659l464 -2l5 131h-471v498h557l-15 127h-678v-1427z" />
<glyph unicode="G" horiz-adv-x="1464" d="M106 702q0 -158 57.5 -293t158 -234t236.5 -155.5t294 -56.5q135 0 265 40t241 122v584h-488l-22 -129h375v-377q-78 -55 -172.5 -82t-188.5 -27q-129 0 -240.5 46t-193.5 127t-129 192.5t-47 242.5q0 129 45 240t126 191.5t190.5 127t238.5 46.5q119 0 229.5 -45 t204.5 -113l47 129q-104 82 -233 121t-260 39q-156 0 -290 -56.5t-232.5 -156t-155 -233.5t-56.5 -290z" />
<glyph unicode="H" horiz-adv-x="1464" d="M170 -16l137 14v649h852v-663l135 14v1429l-137 -14v-641h-852v655l-135 -14v-1429z" />
<glyph unicode="I" horiz-adv-x="485" d="M176 -16l133 14v1429l-133 -14v-1429z" />
<glyph unicode="J" horiz-adv-x="657" d="M-41 -180q39 -27 84 -38t92 -11q96 0 160.5 34.5t102.5 93t53.5 135.5t15.5 161v1232l-135 -14v-1167q0 -57 -5 -117.5t-25.5 -111t-63.5 -83t-117 -32.5q-37 0 -72 14t-63 37z" />
<glyph unicode="K" horiz-adv-x="1101" d="M66 -16l137 14v700l682 -718l159 36l-677 709l618 676l-160 29l-624 -687v684l-135 -14v-1429z" />
<glyph unicode="L" horiz-adv-x="923" d="M92 -10h719q0 35 8.5 65.5t14.5 63.5h-607v1308l-135 -14v-1423z" />
<glyph unicode="M" horiz-adv-x="1642" d="M113 0l133 -18l94 1126l483 -850l473 850l99 -1124l135 14l-141 1432h-70l-496 -912l-499 912h-68z" />
<glyph unicode="N" horiz-adv-x="1517" d="M166 -14v1439l61 5q244 -299 494 -585t493 -583v1151l138 14v-1456h-60l-989 1170v-1141z" />
<glyph unicode="O" horiz-adv-x="1685" d="M94 700q0 -158 59.5 -292t161 -233t237.5 -155.5t292 -56.5q154 0 290 56.5t237.5 155.5t160.5 234t59 291t-59 291t-160.5 234.5t-239 156t-290.5 56.5q-156 0 -292 -56.5t-237.5 -156t-160 -234.5t-58.5 -291zM240 700q0 125 47 236t128 193.5t191.5 130t237.5 47.5 q125 0 234.5 -48.5t191.5 -131.5t129 -192.5t47 -234.5t-47 -235.5t-129 -192.5t-192.5 -130t-235.5 -48q-127 0 -236.5 47t-190.5 130t-128 192.5t-47 236.5z" />
<glyph unicode="P" horiz-adv-x="1021" d="M109 -16l137 14v555q100 0 218 21.5t217 71.5t165.5 134t66.5 211q0 113 -35.5 193t-100 131t-152.5 74.5t-193 23.5q-82 0 -162 -2q-40 -1 -80 -1t-81 1v-1427zM244 680v604h219q66 0 121 -20.5t96 -59.5t64.5 -92t23.5 -121h-2q0 -90 -55.5 -149.5t-136 -94t-171 -50 t-159.5 -17.5z" />
<glyph unicode="Q" horiz-adv-x="1685" d="M94 700q0 -158 59.5 -292t161 -233t237.5 -155.5t292 -56.5q154 0 290 56.5t237.5 155.5t160.5 234t59 291t-59 291t-160.5 234.5t-239 156t-290.5 56.5q-156 0 -292 -56.5t-237.5 -156t-160 -234.5t-58.5 -291zM240 700q0 125 47 236t128 193.5t191.5 130t237.5 47.5 q125 0 234.5 -48.5t191.5 -131.5t129 -192.5t47 -234.5t-47 -235.5t-129 -192.5t-192.5 -130t-235.5 -48q-127 0 -236.5 47t-190.5 130t-128 192.5t-47 236.5zM776 -137l445 -266l59 96l-446 268z" />
<glyph unicode="R" horiz-adv-x="1087" d="M74 -16l135 14v633h123q39 0 88 -39t102 -100.5t106.5 -136t100.5 -146.5t84 -133.5t57 -93.5l150 36q-104 164 -218 320t-245 299q104 29 172 97q67 67 97 153q22 64 23 132q0 23 -3 47q-10 93 -63.5 170t-150.5 126t-241 49h-317v-1427zM209 735v549h182 q137 0 223 -71.5t86 -215.5q0 -68 -23.5 -117t-64.5 -81.5t-96 -48t-117 -15.5h-190z" />
<glyph unicode="S" horiz-adv-x="1038" d="M98 156q61 -80 147.5 -126t179.5 -60q39 -6 78 -5q54 1 107 11q92 18 165 68t118 133t45 196q0 125 -51 199.5t-127 119.5t-166 74t-166 63.5t-127 86t-51 143.5q0 61 23.5 108t63.5 78t92 46.5t110 15.5q86 0 163.5 -38t141.5 -93l45 124q-61 63 -143 97.5t-170 40.5 q-18 1 -36 1q-69 1 -136 -17q-85 -22 -151.5 -70.5t-107.5 -124.5t-41 -176q0 -123 51.5 -196t128 -117t166 -71.5t166 -63.5t128 -90t51.5 -151q0 -61 -23.5 -110t-63.5 -85t-93.5 -54.5t-110.5 -18.5q-104 0 -192.5 54.5t-155.5 127.5z" />
<glyph unicode="T" horiz-adv-x="1087" d="M23 1282h460v-1298l135 14v1286h447v127h-1024z" />
<glyph unicode="U" horiz-adv-x="1386" d="M145 524q0 -127 39 -230.5t111 -177t174 -113.5t229 -40q131 0 232.5 44t170 121t104.5 183.5t36 233.5v882l-135 -14v-844q0 -98 -24.5 -184t-76 -150.5t-128 -102.5t-183.5 -38q-102 0 -179 35t-129 95.5t-78.5 143.5t-26.5 179v880l-136 -14v-889z" />
<glyph unicode="V" horiz-adv-x="1280" d="M-6 1409l624 -1444h27l643 1444l-143 18l-512 -1157l-500 1157z" />
<glyph unicode="W" horiz-adv-x="1953" d="M-12 1403l540 -1438h29l426 1122l414 -1122h26l543 1438l-141 27l-410 -1108l-422 1108h-20l-428 -1117l-416 1117z" />
<glyph unicode="X" horiz-adv-x="1318" d="M-14 14l155 -32l516 641l523 -643l151 38l-590 713l516 655l-145 33l-457 -581l-475 581l-143 -33l532 -649z" />
<glyph unicode="Y" horiz-adv-x="1155" d="M-23 1409l541 -768l-115 -657l136 14l114 604l525 807l-154 18l-432 -655l-463 655z" />
<glyph unicode="Z" horiz-adv-x="1265" d="M41 16l928 1266h-887l20 129h1092l10 -31l-928 -1261h949l-19 -127h-1153z" />
<glyph unicode="[" horiz-adv-x="638" d="M111 -379h417v117h-297v1558h297v115h-417v-1790z" />
<glyph unicode="\" horiz-adv-x="618" d="M-55 1438l604 -1475h125l-604 1475h-125z" />
<glyph unicode="]" horiz-adv-x="638" d="M111 -264v-115h417v1790h-417v-117h297v-1558h-297z" />
<glyph unicode="^" horiz-adv-x="1335" d="M170 684l117 -33l381 611l381 -611l116 33l-460 733h-76z" />
<glyph unicode="_" d="M4 -319h1061v-148h-1061v148z" />
<glyph unicode="`" horiz-adv-x="614" d="M94 1425l314 -323l108 2l-231 317z" />
<glyph unicode="a" horiz-adv-x="937" d="M114 360q-10 -42 -9 -82q0 -52 16 -101q29 -87 108.5 -148.5t212.5 -61.5q74 0 141.5 33t116.5 86l11 -121l123 43q-6 121 -7 238v239q0 98 -1 191.5t-27.5 167.5t-93 118t-197.5 44q-80 0 -156 -25t-145 -61l-25 -146q66 45 148 79t162 34q86 0 146 -43t60 -135v-119 q-118 36 -212 36q-44 0 -82 -8q-122 -24 -195 -93t-95 -165zM231 276q0 59 26 104.5t67 76t93 46t105 15.5q20 0 50 -8t57.5 -23.5t48 -35.5t20.5 -45q0 -35 -1 -72t-1 -72q0 -8 -6 -21.5t-10 -19.5q-45 -77 -121 -109q-58 -24 -113 -24q-18 0 -36 2q-72 10 -125.5 58.5 t-53.5 127.5z" />
<glyph unicode="b" horiz-adv-x="1193" d="M109 297q0 -18 14 -53t24 -54q51 -98 141 -153t194 -69q34 -4 67 -4q73 0 145 20q108 28 194.5 94.5t141.5 172t55 247.5q0 121 -40.5 217t-108.5 162.5t-156 100.5q-81 31 -167 31h-15q-94 -3 -188.5 -46t-173.5 -129v628q-31 -10 -62.5 -18.5t-64.5 -16.5v-1130z M236 313v281q0 16 10 38.5t16 37.5q41 88 109.5 140t145.5 70q38 9 77 8.5t78 -8.5q78 -18 141.5 -67t103 -128.5t39.5 -188.5h-2q0 -106 -41 -184.5t-105 -129.5q-64 -50 -144 -72q-60 -16 -119 -17q-19 0 -38 2q-77 7 -143.5 46t-105.5 109q-8 14 -15 30.5t-7 32.5z" />
<glyph unicode="c" horiz-adv-x="985" d="M80 486v-9q0 -129 54 -241q56 -116 170 -192.5t286 -76.5q80 0 164.5 24.5t150.5 69.5l-43 117q-59 -41 -129.5 -62.5t-142.5 -21.5q-127 0 -211 58.5t-126 145.5t-42 189t42 189.5t128 146t213 58.5q72 0 138.5 -23.5t125.5 -60.5l45 121q-72 39 -150.5 63.5 t-160.5 24.5q-168 0 -280.5 -77t-171 -193t-60.5 -250z" />
<glyph unicode="d" horiz-adv-x="1193" d="M113 485q0 -109 38.5 -203t106.5 -164.5t161 -110.5t204 -40q92 0 180 34t153 99v-125l125 17v1470q-31 -10 -62.5 -18t-64.5 -17v-548q-66 61 -148.5 94t-172.5 33q-111 0 -206 -40t-164.5 -110t-109.5 -165t-40 -206zM244 485q0 104 41 183.5t107 129.5t144 70 q49 13 97 13q30 -1 59 -5q78 -12 143.5 -57t102.5 -127q4 -10 11 -28.5t7 -30.5v-297q0 -23 -8 -42.5t-18 -37.5q-41 -76 -108.5 -115t-143.5 -46q-17 -2 -35 -2q-59 1 -119 19q-78 24 -140 74t-101 125.5t-39 173.5z" />
<glyph unicode="e" horiz-adv-x="1048" d="M72 494q0 156 61.5 264t154.5 168q94 62 206 74q30 3 58 2q80 0 154 -25q100 -35 175.5 -118t95.5 -212l-768 -248q16 -68 51 -124t84 -96t110.5 -62.5t131.5 -22.5q104 0 196 50.5t170 115.5v-151q-86 -78 -184 -113q-90 -32 -181 -32h-15q-98 3 -188.5 42t-160 107.5 t-110.5 165t-41 215.5zM203 508l598 207q-25 72 -77 112.5t-118 50.5q-25 4 -49 4q-42 0 -86 -10q-70 -18 -128 -65t-97 -122t-43 -177z" />
<glyph unicode="f" horiz-adv-x="575" d="M-29 864h156v-884l127 22v864h235v117h-235q0 70 1 133.5t21.5 111.5t66.5 76.5t136 28.5q33 0 63.5 -6t61.5 -16l-18 125q-43 22 -88 22h-4q-166 0 -266.5 -87t-100.5 -259v-131h-137z" />
<glyph unicode="g" d="M74 30q16 85 72.5 156.5t154.5 112.5q-90 47 -139 117.5t-62 149.5q-4 28 -4 56q0 51 14 101q23 78 76.5 141.5t135 102.5t190.5 39q98 0 182 -43v12l310 33v-123h-201q63 -72 87 -154q15 -54 15 -107q0 -26 -4 -52q-12 -78 -61 -149t-129 -120q94 -45 148 -118.5 t69 -159.5q7 -36 7 -72q0 -51 -13 -101q-21 -88 -75 -158.5t-141.5 -114.5t-203.5 -44q-117 0 -204 45t-142.5 117t-77.5 160q-12 50 -12 99q0 37 8 74zM203 -57q0 -70 25.5 -122t67.5 -87t95 -52.5t109 -17.5q55 0 109.5 17.5t96.5 53.5t67.5 90t25.5 126q0 92 -44 155.5 t-110.5 96.5t-144.5 33q-76 0 -142.5 -32t-110.5 -97.5t-44 -163.5zM236 604q0 -61 22.5 -107t60 -77t85 -47.5t96.5 -16.5q51 0 99 15.5t85 47.5t59.5 80t22.5 113h2q0 66 -22.5 116t-60.5 84t-86 50.5t-97 16.5t-97.5 -17.5t-86 -51.5t-60 -86t-22.5 -120z" />
<glyph unicode="h" horiz-adv-x="1058" d="M133 -20l127 22v660q0 6 6 22t10 23q48 98 136 144q73 38 146 38q14 0 28 -1q86 -9 149.5 -78t63.5 -200v-630l127 22v610q0 178 -94.5 286t-278.5 108q-94 0 -167 -42t-126 -116v614q-31 -10 -62.5 -18t-64.5 -19v-1445z" />
<glyph unicode="i" horiz-adv-x="464" d="M156 1247q0 -37 23.5 -56.5t51.5 -19.5q31 0 54.5 18.5t23.5 57.5q0 37 -23.5 56.5t-54.5 19.5q-29 0 -52 -18.5t-23 -57.5zM176 -20l125 22v1004q-31 -10 -62.5 -20.5t-62.5 -20.5v-985z" />
<glyph unicode="j" horiz-adv-x="464" d="M-53 -309l41 -123q98 0 164.5 30.5t106.5 87t57.5 132.5t17.5 164v1024q-33 -10 -63.5 -20.5t-63.5 -20.5v-979q0 -74 -9.5 -132.5t-37 -97.5t-78.5 -56q-35 -12 -85 -12q-23 0 -50 3zM188 1247q0 -39 24 -59q23 -18 51 -18h3q29 1 52.5 20.5t23.5 56.5t-23.5 56.5 t-52.5 20.5h-3q-28 0 -51 -18q-24 -20 -24 -59z" />
<glyph unicode="k" horiz-adv-x="880" d="M49 -20l127 22v467l547 -487l117 47l-516 475l462 463l-131 34l-479 -473v922l-127 -23v-1447z" />
<glyph unicode="l" horiz-adv-x="657" d="M191 804q2 308 2 621q31 10 62.5 18.5t61.5 18.5v-1186q0 -47 5.5 -81.5t22.5 -57t48 -33t84 -10.5q35 0 67.5 10.5t65.5 24.5l-2 -125q-66 -23 -133 -28q-14 -1 -27 -1q-52 -1 -98 15q-58 20 -100.5 67t-54.5 127h-2q-3 209 -3 415q0 103 1 205z" />
<glyph unicode="m" horiz-adv-x="1632" d="M141 -20l129 22v647q0 10 6.5 26.5t10.5 26.5q29 70 75 114t97 62q35 12 71 12q16 0 33 -3q53 -8 95 -41t69 -92.5t27 -143.5v-630l127 22v647q0 10 6 25.5t10 25.5q31 70 77 114t98 62q36 13 73 13q15 0 31 -2q52 -8 94.5 -42t68 -92.5t25.5 -142.5v-630l127 22v610 q0 76 -18.5 146.5t-57.5 126t-99.5 88.5t-146.5 33q-106 0 -186 -48.5t-135 -138.5q-47 94 -122 140.5t-158 48.5q-4 0 -8 1q-80 0 -156 -40q-80 -41 -138 -121v158q-63 -18 -125 -31v-995z" />
<glyph unicode="n" horiz-adv-x="1058" d="M133 -20l127 22v660q0 4 8 23.5t11 23.5q41 82 111.5 130t162.5 48q129 0 187.5 -78t58.5 -199v-630l127 22v610q0 178 -94.5 286t-278.5 108q-94 0 -168 -42t-127 -116v158q-63 -18 -125 -31v-995z" />
<glyph unicode="o" horiz-adv-x="1169" d="M76 485q0 -106 39 -200.5t107.5 -165t160.5 -111.5t201 -41q106 0 199.5 41t163 111.5t108.5 165t39 200.5t-39 201.5t-107.5 166.5t-162 112t-201.5 41q-109 0 -202 -41t-160.5 -112t-106.5 -166t-39 -202zM207 485q0 78 28.5 150t79 126t120 87t149.5 33t149.5 -32 t120.5 -86t80 -126t29 -152h-2q0 -78 -29 -149.5t-79 -125.5t-119.5 -86t-149.5 -32t-148.5 32t-120 86t-80 126t-28.5 149z" />
<glyph unicode="p" horiz-adv-x="1193" d="M115 -436l129 22v506q68 -63 158 -94t182 -31q102 0 192 42t157.5 114t106.5 164t39 194q0 113 -36.5 209t-104.5 166t-162 110t-209 40q-92 0 -176 -36t-149 -102v125l-127 -18v-1411zM244 322v317q0 16 5 30.5t11 28.5q33 76 96.5 120t139.5 58q31 5 64 5q45 0 91 -11 q80 -18 144.5 -68t106.5 -131t42 -194h-2q0 -98 -39 -174t-101.5 -125t-139.5 -70q-53 -14 -105 -14q-23 0 -46 3q-75 9 -141.5 51t-105.5 120q-4 10 -12 26.5t-8 27.5z" />
<glyph unicode="q" horiz-adv-x="1193" d="M113 473q0 -106 37.5 -198.5t104.5 -161t158 -107.5t199 -39q94 0 182.5 35t159.5 92v-530l127 22v1411l-127 -16v-121q-63 66 -148 106t-177 40q-111 0 -206 -42t-164 -115t-107.5 -169t-38.5 -207zM244 473q0 109 40 189.5t103.5 132t140.5 73.5q51 14 101 14 q27 0 54 -4q77 -12 143.5 -56t107.5 -122q6 -12 14 -30.5t8 -32.5l-2 -305q0 -10 -5 -22.5t-9 -20.5q-41 -84 -108.5 -132t-144.5 -61q-32 -6 -65 -6q-46 0 -92 10q-79 19 -142.5 67t-103.5 126t-40 180z" />
<glyph unicode="r" horiz-adv-x="671" d="M43 -20l127 22v555q0 45 26.5 101.5t67.5 105.5t92.5 82t100.5 33q39 0 62.5 -16.5t49.5 -41.5l62 121q-59 60 -127 64q-7 0 -13 1q-61 0 -119 -29q-64 -32 -117.5 -87t-84.5 -111v213l-127 -18v-995z" />
<glyph unicode="s" horiz-adv-x="806" d="M74 96q66 -59 147.5 -95t171.5 -36q63 0 124 20.5t109 58.5t76.5 92t28.5 124q0 86 -38 139.5t-95 86t-122.5 53t-123 44t-95.5 55.5t-38 89q0 43 18.5 72.5t48 48t66.5 27t74 8.5q68 0 130 -31t114 -74l39 117q-79 71 -185 95q-54 12 -106 13q-50 1 -96 -11 q-96 -22 -162 -90t-66 -175q0 -86 38 -138t95.5 -84t124 -53.5t123.5 -45t95 -58.5t38 -94q0 -43 -19.5 -72.5t-49 -50t-67.5 -30t-75 -9.5q-74 0 -142.5 31t-123.5 78z" />
<glyph unicode="t" horiz-adv-x="638" d="M12 864h195v-626q0 -92 37 -150.5t96 -87.5q57 -28 128 -28h5q74 1 150 32l4 125q-33 -14 -67 -24.5t-68 -10.5q-53 0 -84 10.5t-48.5 33t-22.5 57t-5 81.5v590h270v117h-270v320l-127 -91v-231h-176z" />
<glyph unicode="u" horiz-adv-x="1058" d="M133 362q0 -182 89 -288.5t280 -106.5q92 0 166.5 45t128.5 119v-139q18 -2 34 -2q17 0 31 2q30 4 64 8v985l-127 -18v-379q0 -47 2 -93q1 -15 1 -31q0 -31 -3 -63q-4 -61 -24.5 -118.5t-57.5 -101.5t-89.5 -69.5t-119.5 -25.5q-72 0 -120 22.5t-76.5 62.5t-40 94 t-11.5 120v600l-127 -18v-605z" />
<glyph unicode="v" horiz-adv-x="937" d="M-12 985l465 -1018h43l452 1016q-28 4 -64 11q-23 4 -43 4q-11 0 -22 -1l-346 -772l-358 772q-33 -4 -62.5 -8t-64.5 -4z" />
<glyph unicode="w" horiz-adv-x="1566" d="M-12 985l436 -1018h33l319 768l330 -768h35l436 1016q-27 4 -63 11q-23 4 -40 4q-10 0 -20 -1l-330 -755l-329 755h-33l-326 -755l-321 755q-33 -4 -62.5 -8t-64.5 -4z" />
<glyph unicode="x" horiz-adv-x="991" d="M10 14q35 -8 70 -18t70 -10l342 417l354 -419l135 32l-403 486l393 465q-35 8 -68 18t-67 10l-344 -401l-345 403l-135 -32l396 -463z" />
<glyph unicode="y" horiz-adv-x="927" d="M-16 983l428 -805l-289 -598l125 -16l694 1419l-129 14l-332 -686l-366 684z" />
<glyph unicode="z" horiz-adv-x="962" d="M37 16l659 838h-598l17 125h803l8 -27l-660 -837h660l-19 -123h-860z" />
<glyph unicode="{" horiz-adv-x="727" d="M131 455q68 -4 102.5 -43t48 -98.5t13.5 -135.5q0 -74 -2 -150.5t2 -149.5t26.5 -130t70.5 -92t134 -35h70v125h-57q-66 0 -89.5 46t-26.5 119t2 162t-3 175t-41 157.5t-111 110.5q76 39 108 110.5t40 157.5t4 175.5t0 163t28.5 119.5t90.5 46h55v123h-72q-86 0 -133 -35 t-69.5 -91t-26.5 -130t-2 -150.5t2 -150.5t-13.5 -134.5t-48 -98t-102.5 -43.5v-123z" />
<glyph unicode="|" horiz-adv-x="499" d="M186 -268h127v1751h-127v-1751z" />
<glyph unicode="}" horiz-adv-x="727" d="M131 -256v-123h72q86 0 133 35t68.5 91t25.5 130t2 150.5t-3 150.5t13.5 134.5t49 98.5t104.5 44v123q-70 4 -104.5 42.5t-49 98t-13.5 134.5t2 151.5t-2 149.5t-25.5 130t-69.5 92t-133 35h-70v-125h57q63 0 87 -46t27 -118.5t-1 -162t4 -174.5t40 -157.5t112 -111.5 q-78 -39 -111 -110.5t-41 -157.5t-3 -175t1 -163t-27.5 -120t-89.5 -46h-55z" />
<glyph unicode="~" horiz-adv-x="1335" d="M154 586q16 33 46.5 61.5t67.5 50t77 33.5t77 12q74 0 136.5 -23.5t120.5 -52t112.5 -52t109.5 -23.5t113.5 33.5t124.5 119.5l43 -118q-16 -33 -47 -61.5t-68 -50t-77 -34t-77 -12.5q-72 0 -135 23.5t-122.5 52t-116 51t-111.5 22.5t-112.5 -33.5t-118.5 -119.5z" />
<glyph unicode="&#xa1;" horiz-adv-x="454" d="M150 -426q41 4 74.5 10t76.5 0l-16 1080l-109 -9zM152 889q0 -37 23.5 -56.5t51.5 -19.5q31 0 54.5 18.5t23.5 57.5q0 37 -23.5 56.5t-54.5 19.5q-29 0 -52 -18.5t-23 -57.5z" />
<glyph unicode="&#xa2;" horiz-adv-x="985" d="M156.5 667.5q15.5 98.5 69 179.5t145.5 134t219 55l59 305l109 15l-68 -338q37 -10 71 -28.5t66 -39.5l-43 -121q-29 23 -57.5 40.5t-60.5 27.5l-119 -600q76 -2 128 16.5t113 65.5l43 -115q-63 -55 -144 -77.5t-163 -14.5l-69 -348l-109 -14l78 385q-106 37 -170 113.5 t-88.5 168.5t-9 190.5zM287.5 661.5q-11.5 -65.5 3 -130t53.5 -120t105 -87.5l114 587q-80 -4 -137 -39.5t-92 -90t-46.5 -120z" />
<glyph unicode="&#xa3;" horiz-adv-x="1122" d="M96 106l2 -116h916v114l-576 2v531h250v129h-244l2 291q0 55 13.5 106t41 91t71.5 63.5t106 23.5q90 0 147.5 -47t102.5 -118l102 49q-33 57 -66.5 100t-75.5 72.5t-94.5 44t-119.5 14.5q-86 0 -153.5 -31.5t-114 -86t-71 -127t-24.5 -154.5q0 -74 -1 -146.5t-1 -146.5 h-153l-27 -129h176l-2 -529h-207z" />
<glyph unicode="&#xa4;" horiz-adv-x="1308" d="M2 524h182q27 -125 90.5 -224t150.5 -171t194.5 -113t221 -50t230.5 15.5t223 84.5l13 157q-135 -86 -287 -113.5t-290 8.5t-244.5 137t-151.5 271h725v97h-742q-6 41 -5 85t5 85h742v96h-721q29 94 83 171t128 131t163 84t187 30q109 0 209 -35t192 -88l-12 159 q-160 88 -333 95.5t-327.5 -55t-272 -189.5t-165.5 -305h-188v-96h170q-4 -41 -5 -85t3 -85h-168v-97z" />
<glyph unicode="&#xa5;" horiz-adv-x="1126" d="M-6 1444l389 -680h-277v-125h349l34 -61v-82h-362v-125h362v-387l150 14v375h354v125h-354v82l35 61h340v125h-269l388 678l-162 18l-406 -739l-407 739z" />
<glyph unicode="&#xa6;" horiz-adv-x="499" d="M186 -268h127v741h-127v-741zM186 739l127 2v742h-127v-744z" />
<glyph unicode="&#xa7;" horiz-adv-x="962" d="M92 637q0 -96 41 -175t102.5 -145.5t134 -126t134 -116t102.5 -112.5t41 -120q0 -35 -15.5 -65.5t-40 -52t-56 -34t-64.5 -12.5q-53 0 -109.5 35t-93.5 70l-80 -70q90 -92 182.5 -123.5t171.5 -17.5t138 65.5t82.5 124t5.5 157.5t-96 167q80 41 139 113.5t59 167.5 q0 94 -41 172.5t-102 145.5t-134 126t-134.5 116.5t-102.5 114t-41 119.5q0 72 52.5 118t121.5 46q53 0 109.5 -26.5t97.5 -57.5l74 72q-90 82 -182 107.5t-171 9t-137.5 -67.5t-82 -123t-3 -156t96.5 -165q-80 -41 -139.5 -114t-59.5 -167zM221 647q0 70 37.5 115t103.5 65 q53 -33 120 -84t124.5 -113.5t96 -131t38.5 -138.5q0 -68 -38.5 -114.5t-102.5 -67.5q-55 33 -120.5 85t-123 113.5t-96.5 131.5t-39 139z" />
<glyph unicode="&#xa8;" horiz-adv-x="614" d="M51 1247q0 -37 23.5 -56.5t52.5 -19.5q31 0 54.5 18.5t23.5 57.5q0 37 -23.5 56.5t-54.5 19.5q-29 0 -52.5 -18.5t-23.5 -57.5zM410 1247q0 -37 23.5 -56.5t51.5 -19.5q31 0 54.5 18.5t23.5 57.5q0 37 -23.5 56.5t-54.5 19.5q-29 0 -52 -18.5t-23 -57.5z" />
<glyph unicode="&#xa9;" horiz-adv-x="1683" d="M80 715q0 -158 60.5 -296t164 -240.5t241.5 -163t296 -60.5t296 60.5t241.5 164t164 241.5t60.5 296q0 156 -60.5 295t-164 241.5t-243 163t-294.5 60.5q-158 0 -296 -60.5t-241.5 -164t-164 -242t-60.5 -295.5zM207 717q0 129 50 244.5t137 202.5t203 138.5t245 51.5 q131 0 246.5 -51.5t201.5 -138.5t136.5 -202.5t50.5 -246.5h-2q0 -129 -50.5 -245t-136.5 -203t-200.5 -138t-245.5 -51t-247 51t-202 138t-136 203t-50 247zM434 717q0 -135 51.5 -232.5t130 -154t173 -71.5t181.5 13.5t154 100t90 190.5l-118 19q-16 -78 -61.5 -128.5 t-104 -69.5t-123 -8t-118.5 53t-89 114.5t-35 179.5q0 94 34 161.5t86 107.5t114.5 52.5t121 -4t105.5 -60.5t66 -116l122 15q-29 111 -96 178t-154 93t-180.5 9.5t-171 -72t-128 -148.5t-50.5 -222z" />
<glyph unicode="&#xaa;" horiz-adv-x="606" d="M71.5 1041.5q-14.5 -58.5 5 -113t73 -91t139.5 -36.5q45 0 88 18.5t76 48.5l6 -51l82 37v406q0 45 -17.5 78.5t-47.5 54t-67.5 31t-78.5 10.5q-53 0 -102.5 -15.5t-96.5 -38.5l-16 -96q47 29 99 49.5t108 20.5q49 0 89 -23.5t40 -79.5v-67q-113 33 -192 16.5t-126 -58.5 t-61.5 -100.5zM156 991q0 53 40 88t91 47.5t99.5 -2t64.5 -57.5v-84q0 -41 -46.5 -67.5t-101.5 -30.5t-101 20.5t-46 85.5z" />
<glyph unicode="&#xab;" horiz-adv-x="1011" d="M92 494l346 -383l115 41l-307 342l311 342l-115 41zM459 494l346 -383l115 41l-308 342l312 342l-115 41z" />
<glyph unicode="&#xac;" horiz-adv-x="1335" d="M131 772h952v-475l121 2v596h-1073v-123z" />
<glyph unicode="&#xad;" horiz-adv-x="706" d="M92 430l522 2v113h-522v-115z" />
<glyph unicode="&#xae;" horiz-adv-x="1683" d="M80 715q0 -158 60.5 -296t164 -240.5t241.5 -163t296 -60.5t296 60.5t241.5 164t164 241.5t60.5 296q0 156 -60.5 295t-164 241.5t-243 163t-294.5 60.5q-158 0 -296 -60.5t-241.5 -164t-164 -242t-60.5 -295.5zM207 717q0 131 50 246.5t136 202.5t202 137.5t247 50.5 t246.5 -51.5t201.5 -138.5t136.5 -202.5t50.5 -246.5h-2q0 -131 -50.5 -247t-136.5 -203t-200.5 -137t-245.5 -50t-247 51t-202 138t-136 203t-50 247zM541 285h127q-2 92 -2 182v182h110q53 -29 94 -69.5t74 -89t60.5 -100.5t54.5 -103l151 -4q-27 47 -53.5 99t-55 101 t-63 95.5t-77.5 80.5q92 16 150 77t58 159q0 72 -24.5 119t-66.5 74.5t-98 39t-118 11.5h-321v-854zM664 756v274h180q37 0 71.5 -4t62.5 -18.5t44 -41t16 -71.5h-2q0 -68 -42 -98.5t-101 -39.5t-122.5 -5t-106.5 4z" />
<glyph unicode="&#xaf;" horiz-adv-x="614" d="M10 1190l594 2v119h-594v-121z" />
<glyph unicode="&#xb0;" horiz-adv-x="864" d="M131 1139q0 -61 23.5 -116.5t64.5 -96.5t96.5 -64.5t116.5 -23.5t116.5 23.5t96.5 64.5t64.5 96.5t23.5 116.5t-23.5 116.5t-64.5 96.5t-96 64.5t-117 23.5q-61 0 -116.5 -23.5t-96.5 -64.5t-64.5 -96.5t-23.5 -116.5zM240 1139q0 63 28.5 105t71.5 63.5t92 21.5 t92 -21.5t72 -63.5t29 -105h-2q0 -63 -29 -106.5t-71 -64t-93 -20.5q-49 0 -91 21.5t-70.5 63.5t-28.5 106z" />
<glyph unicode="&#xb1;" horiz-adv-x="1335" d="M131 -10h1073v125h-1073v-125zM131 604h477v-422h123v424h473v123h-475v424h-123v-426h-475v-123z" />
<glyph unicode="&#xb2;" horiz-adv-x="673" d="M45 1262q0 -31 12.5 -51.5t30.5 -35t42 -24.5t48 -23h19v19l-19 4l-4 4q-29 6 -47 27.5t-23 50.5q31 72 95.5 101.5t130 21.5t115 -51t49.5 -113q0 -66 -51.5 -144.5t-123 -155.5t-147.5 -143.5t-123 -107.5v-23h569l13 80h-398q43 41 103.5 98.5t117 122t95.5 132 t39 131.5q0 59 -24.5 106t-64.5 81t-91.5 51.5t-106.5 17.5q-72 0 -136.5 -30t-101.5 -95q-6 -10 -12 -24.5t-6 -26.5z" />
<glyph unicode="&#xb3;" horiz-adv-x="673" d="M68 709l43 59q45 -47 112.5 -68.5t131 -14.5t109.5 45t46 112q0 55 -23.5 88t-61.5 49t-84 20.5t-89 4.5v75q115 0 171 33t68.5 77t-15 88t-80 66.5t-125 12.5t-152.5 -76l-35 68q55 53 141 74.5t167 7t138.5 -64.5t57.5 -140q0 -66 -40 -111t-97 -67q96 -37 131.5 -111 t15.5 -147.5t-92 -129t-191 -55.5q-70 0 -136 26t-111 79z" />
<glyph unicode="&#xb4;" horiz-adv-x="614" d="M100 1102h109l309 323l-188 -4z" />
<glyph unicode="&#xb5;" horiz-adv-x="1126" d="M168 -371h129v424q49 -47 113.5 -65.5t130.5 -18.5q92 0 164.5 44t123.5 118v-139q35 -4 64.5 0t64.5 8v985l-129 -18q0 -141 5.5 -282.5t-3.5 -283.5q-4 -61 -24.5 -118.5t-57 -100.5t-89 -69.5t-117.5 -26.5q-72 0 -120 22.5t-77 62.5t-40 94t-11 120v600l-127 -18 v-1338z" />
<glyph unicode="&#xb6;" horiz-adv-x="1325" d="M182 1038q0 -96 33 -173t91.5 -130t137 -81.5t172.5 -28.5v-1026h144v1710h239v-1710h144q0 465 -1 923.5t-1 923.5h-475q-98 0 -186.5 -22.5t-155 -71.5t-104.5 -127t-38 -187z" />
<glyph unicode="&#xb7;" horiz-adv-x="464" d="M156 510q0 -37 23.5 -56.5t51.5 -19.5q31 0 54.5 18.5t23.5 57.5q0 37 -23.5 56.5t-54.5 19.5q-29 0 -52 -18.5t-23 -57.5z" />
<glyph unicode="&#xb8;" horiz-adv-x="614" d="M121 -371l22 84q57 -23 109 -22q74 0 102.5 28.5t20.5 59.5t-48 50t-104 1l-26 23l100 178h90l-70 -113q6 2 11.5 3t11.5 1q61 0 99 -31.5t49.5 -76.5t-5 -93.5t-60.5 -81t-120 -40t-182 29.5z" />
<glyph unicode="&#xb9;" horiz-adv-x="673" d="M221 1348l21 -41l112 55v-750l95 15v821z" />
<glyph unicode="&#xba;" horiz-adv-x="749" d="M41 1116q0 -68 27.5 -126t73.5 -100t106.5 -65.5t126.5 -23.5t126 23.5t106 66.5t74 100t28 125q0 104 -49.5 174t-124 105t-160.5 35t-161 -35t-124 -104.5t-49 -174.5zM133 1116q0 78 36 129t89 77t116.5 25t117 -27t89 -77t35.5 -127t-35.5 -126t-89 -75.5t-117 -26.5 t-116.5 24.5t-89 76.5t-36 127z" />
<glyph unicode="&#xbb;" horiz-adv-x="1011" d="M88 836l311 -342l-307 -342l115 -41l346 383l-350 383zM455 836l311 -342l-307 -342l114 -41l347 383l-351 383z" />
<glyph unicode="&#xbc;" horiz-adv-x="1667" d="M190 1348l21 -41l113 55v-750l94 15v821zM217 -55h117l1007 1493h-118zM844 252h397v-270l94 14v258h131l9 74h-142v493l-26 -4l-463 -543v-22zM987 326l254 307v-307h-254z" />
<glyph unicode="&#xbd;" horiz-adv-x="1667" d="M156 -55h116l1008 1493h-119zM172 1348l21 -41l112 55v-750l94 15v821zM920 633q0 -33 12 -53.5t31.5 -35t43 -24.5t48.5 -20h16l2 18l-20 4l-4 4q-29 6 -46.5 27.5t-21.5 50.5q31 74 95.5 102.5t130 19.5t114.5 -51t49 -112q0 -43 -24.5 -93t-63.5 -102.5t-88 -103.5 t-98 -98t-95.5 -87t-76.5 -67v-22h571l10 80h-397q43 41 104.5 98t116.5 121.5t95 132t40 131.5q0 59 -24.5 106.5t-64.5 81t-91 51t-106 17.5q-72 0 -138.5 -29.5t-101.5 -95.5q-4 -10 -11 -25.5t-7 -25.5z" />
<glyph unicode="&#xbe;" horiz-adv-x="1667" d="M102 709q45 -53 112 -79t136 -26q119 0 190.5 55.5t92 129t-15 147.5t-132.5 111q57 23 97.5 67.5t40.5 110.5q0 61 -27 103t-71 67.5t-98 34t-110.5 2t-108.5 -28t-89 -55.5l35 -68q80 66 152.5 76t124.5 -12.5t80 -66.5t15.5 -88t-69 -77t-170.5 -33v-75q43 0 89 -4.5 t84 -20.5t61.5 -49t23.5 -88q0 -74 -46 -112t-109.5 -45t-131.5 14.5t-113 68.5zM295 -55h119l1007 1493h-121zM934 252h395v-270l94 14v258h133l9 74h-142v493l-28 -4l-461 -543v-22zM1075 326l254 307v-307h-254z" />
<glyph unicode="&#xbf;" horiz-adv-x="788" d="M86 -92q0 -92 35 -161t90 -112t123.5 -60t137.5 -6t130 53t100 116l-32 121h-23q-41 -98 -112.5 -138t-142 -31t-122 63t-51.5 149q0 106 42 177t93.5 127t93 112.5t41.5 136.5q0 59 -14 114.5t-31 110.5l-82 -35q8 -31 14.5 -62.5t6.5 -64.5q0 -55 -21.5 -97t-55.5 -82 t-71.5 -80t-71.5 -89t-55.5 -112.5t-21.5 -149.5zM315 895q0 -47 30 -69.5t65 -22.5q37 0 66.5 23.5t29.5 70.5q0 45 -30 68.5t-66 23.5q-35 0 -65 -23.5t-30 -70.5z" />
<glyph unicode="&#xc0;" horiz-adv-x="1411" d="M-4 -8l143 -19l254 539h631l256 -539l135 19l-688 1442h-41zM453 637l254 532l254 -532h-508zM465 1815l313 -324l111 2l-234 317z" />
<glyph unicode="&#xc1;" horiz-adv-x="1411" d="M-4 -8l143 -19l254 539h631l256 -539l135 19l-688 1442h-41zM453 637l254 532l254 -532h-508zM612 1491h111l309 324l-188 -5z" />
<glyph unicode="&#xc2;" horiz-adv-x="1411" d="M-4 -8l143 -19l254 539h631l256 -539l135 19l-688 1442h-41zM397 1483h127l183 211l180 -211l127 2l-240 330h-135zM453 637l254 532l254 -532h-508z" />
<glyph unicode="&#xc3;" horiz-adv-x="1411" d="M-4 -8l143 -19l254 539h631l256 -539l135 19l-688 1442h-41zM373 1532h90q8 55 32.5 76.5t57.5 21.5t73 -15.5t82 -32.5t84 -32.5t76 -15.5q47 0 80 18.5t54.5 49t32 69.5t12.5 80h-91q-8 -55 -30.5 -76.5t-57.5 -21.5q-33 0 -74.5 14t-83.5 32.5t-83 34t-76 15.5 q-47 0 -80 -18.5t-54.5 -49t-31.5 -69.5t-12 -80zM453 637l254 532l254 -532h-508z" />
<glyph unicode="&#xc4;" horiz-adv-x="1411" d="M-4 -8l143 -19l254 539h631l256 -539l135 19l-688 1442h-41zM444 1513q0 -39 25 -58t53 -19q29 0 53.5 19t24.5 58h-2q0 39 -23.5 58.5t-53 18.5t-53.5 -20.5t-24 -56.5zM453 637l254 532l254 -532h-508zM803 1513q0 -39 24.5 -58t53.5 -19t53 19t24 58t-24.5 57.5 t-52.5 18.5q-29 0 -53.5 -18.5t-24.5 -57.5z" />
<glyph unicode="&#xc5;" horiz-adv-x="1411" d="M-4 -8l143 -19l254 539h631l256 -539l135 19l-688 1442h-41zM453 635l254 534l254 -534h-508zM506 1675q0 -66 29.5 -109.5t74.5 -66t97 -22.5q51 0 96 22.5t74.5 66t29.5 109.5t-29.5 110t-74.5 66.5t-96 22.5t-96.5 -22.5t-75 -66.5t-29.5 -110zM586 1675q0 59 38 89 t83 30t82.5 -30t37.5 -89h-2q0 -59 -37.5 -89t-82.5 -30q-43 0 -81 30t-38 89z" />
<glyph unicode="&#xc6;" horiz-adv-x="1898" d="M35 -10h160l436 657h422v-657h792l13 129h-672v526h590v127h-590v512h647l-14 127h-838zM717 774l336 506l-2 -506h-334z" />
<glyph unicode="&#xc7;" horiz-adv-x="1308" d="M84 700q0 -145 46 -271t131 -222t204 -158.5t264 -79.5l-67 -119l26 -22q61 20 101 1t49.5 -50t-18 -60.5t-103.5 -29.5q-53 0 -109 22l-22 -84q106 -37 181 -29.5t120 40t61.5 81t5 93.5t-49.5 76.5t-99 31.5q-6 0 -11.5 -1t-11.5 -3l29 49q104 -4 207.5 22.5 t193.5 78.5l13 157q-92 -59 -194.5 -94t-211.5 -35q-147 0 -257.5 52.5t-184.5 137.5t-110 193.5t-36 220.5q0 115 37 223.5t111 193.5t183.5 137.5t254.5 52.5q109 0 209 -35t193 -88l-13 159q-82 47 -181 72t-194 25q-154 0 -289.5 -56.5t-237 -156t-161 -234.5 t-59.5 -291z" />
<glyph unicode="&#xc8;" horiz-adv-x="1058" d="M119 -10h809l12 127h-686v528h604v127h-604v512h661l-14 127h-782v-1421zM272 1815l314 -324l110 2l-233 317z" />
<glyph unicode="&#xc9;" horiz-adv-x="1058" d="M119 -10h809l12 127h-686v528h604v127h-604v512h661l-14 127h-782v-1421zM420 1491h110l310 324l-189 -5z" />
<glyph unicode="&#xca;" horiz-adv-x="1058" d="M119 -10h809l12 127h-686v528h604v127h-604v512h661l-14 127h-782v-1421zM205 1483h127l182 211l180 -211l127 2l-239 330h-136z" />
<glyph unicode="&#xcb;" horiz-adv-x="1058" d="M119 -10h809l12 127h-686v528h604v127h-604v512h661l-14 127h-782v-1421zM252 1636q0 -39 24.5 -58t53.5 -19t53.5 19t24.5 58h-2q0 39 -24 58.5t-53.5 18.5t-53 -20.5t-23.5 -56.5zM610 1636q0 -39 24.5 -58t53.5 -19t53.5 19t24.5 58t-24.5 57.5t-53.5 18.5 t-53.5 -18.5t-24.5 -57.5z" />
<glyph unicode="&#xcc;" horiz-adv-x="485" d="M29 1815l313 -324l111 2l-234 317zM201 -16l133 14v1429l-133 -14v-1429z" />
<glyph unicode="&#xcd;" horiz-adv-x="485" d="M35 1491h110l310 324l-189 -5zM59 -16l136 14v1429l-136 -14v-1429z" />
<glyph unicode="&#xce;" horiz-adv-x="485" d="M-66 1483h127l183 211l180 -211l127 2l-240 330h-135zM174 -16l133 14v1429l-133 -14v-1429z" />
<glyph unicode="&#xcf;" horiz-adv-x="485" d="M-14 1636q0 -39 24.5 -58t52.5 -19q29 0 53.5 19t24.5 58h-2q0 39 -23.5 58.5t-53 18.5t-53 -20.5t-23.5 -56.5zM178 -16l135 14v1429l-135 -14v-1429zM344 1636q0 -39 24.5 -58t53.5 -19t53.5 19t24.5 58t-24.5 57.5t-53.5 18.5t-53.5 -18.5t-24.5 -57.5z" />
<glyph unicode="&#xd0;" horiz-adv-x="1429" d="M47 641h172v-651h432q158 0 292 50t231.5 143t152.5 224.5t55 290.5q0 168 -53 297t-148.5 218.5t-229.5 137.5t-294 58q-111 6 -219 6q-109 0 -219 2v-649h-172v-127zM354 117v526h398v127h-398v514h281q135 0 245.5 -40t190.5 -115.5t123 -184t43 -246.5 q0 -135 -47 -242.5t-129 -183t-194.5 -115.5t-243.5 -40h-269z" />
<glyph unicode="&#xd1;" horiz-adv-x="1517" d="M166 -14v1439l61 5q244 -299 494 -585t493 -583v1151l138 14v-1456h-60l-989 1170v-1141zM434 1532q2 41 12.5 80t32 69.5t54 49t79.5 18.5q35 0 76 -15.5t84 -33t83 -32.5t75 -15t57.5 21.5t30.5 76.5h90q-2 -41 -12.5 -80t-32 -69.5t-54 -49t-79.5 -18.5 q-37 0 -78 15.5t-83 32.5t-82 32.5t-73 15.5t-57.5 -21.5t-32.5 -76.5h-90z" />
<glyph unicode="&#xd2;" horiz-adv-x="1685" d="M94 700q0 -158 59.5 -292t161 -233t237.5 -155.5t292 -56.5q154 0 290 56.5t237.5 155.5t160.5 234t59 291t-59 291t-160.5 234.5t-239 156t-290.5 56.5q-156 0 -292 -56.5t-237.5 -156t-160 -234.5t-58.5 -291zM240 700q0 125 47 236t128 193.5t191.5 130t237.5 47.5 q125 0 234.5 -48.5t191.5 -131.5t129 -192.5t47 -234.5t-47 -235.5t-129 -192.5t-192.5 -130t-235.5 -48q-127 0 -236.5 47t-190.5 130t-128 192.5t-47 236.5zM600 1815l313 -324l109 2l-231 317z" />
<glyph unicode="&#xd3;" horiz-adv-x="1685" d="M94 700q0 -158 59.5 -292t161 -233t237.5 -155.5t292 -56.5q154 0 290 56.5t237.5 155.5t160.5 234t59 291t-59 291t-160.5 234.5t-239 156t-290.5 56.5q-156 0 -292 -56.5t-237.5 -156t-160 -234.5t-58.5 -291zM240 700q0 125 47 236t128 193.5t191.5 130t237.5 47.5 q125 0 234.5 -48.5t191.5 -131.5t129 -192.5t47 -234.5t-47 -235.5t-129 -192.5t-192.5 -130t-235.5 -48q-127 0 -236.5 47t-190.5 130t-128 192.5t-47 236.5zM748 1491h108l309 324l-188 -5z" />
<glyph unicode="&#xd4;" horiz-adv-x="1685" d="M94 700q0 -158 59.5 -292t161 -233t237.5 -155.5t292 -56.5q154 0 290 56.5t237.5 155.5t160.5 234t59 291t-59 291t-160.5 234.5t-239 156t-290.5 56.5q-156 0 -292 -56.5t-237.5 -156t-160 -234.5t-58.5 -291zM240 700q0 125 47 236t128 193.5t191.5 130t237.5 47.5 q125 0 234.5 -48.5t191.5 -131.5t129 -192.5t47 -234.5t-47 -235.5t-129 -192.5t-192.5 -130t-235.5 -48q-127 0 -236.5 47t-190.5 130t-128 192.5t-47 236.5zM532 1483h127l181 211l180 -211l127 2l-238 330h-137z" />
<glyph unicode="&#xd5;" horiz-adv-x="1685" d="M94 700q0 -158 59.5 -292t161 -233t237.5 -155.5t292 -56.5q154 0 290 56.5t237.5 155.5t160.5 234t59 291t-59 291t-160.5 234.5t-239 156t-290.5 56.5q-156 0 -292 -56.5t-237.5 -156t-160 -234.5t-58.5 -291zM240 700q0 125 47 236t128 193.5t191.5 130t237.5 47.5 q125 0 234.5 -48.5t191.5 -131.5t129 -192.5t47 -234.5t-47 -235.5t-129 -192.5t-192.5 -130t-235.5 -48q-127 0 -236.5 47t-190.5 130t-128 192.5t-47 236.5zM508 1532h88q8 55 32.5 76.5t57.5 21.5t73 -15.5t82 -32.5t84 -32.5t79 -15.5q47 0 79.5 18.5t54 49t31 69.5 t11.5 80h-88q-10 -55 -35 -76.5t-60 -21.5q-33 0 -72.5 15t-81.5 32.5t-83 33t-76 15.5q-47 0 -80 -18.5t-53.5 -49t-30.5 -69.5t-12 -80z" />
<glyph unicode="&#xd6;" horiz-adv-x="1685" d="M94 700q0 -158 59.5 -292t161 -233t237.5 -155.5t292 -56.5q154 0 290 56.5t237.5 155.5t160.5 234t59 291t-59 291t-160.5 234.5t-239 156t-290.5 56.5q-156 0 -292 -56.5t-237.5 -156t-160 -234.5t-58.5 -291zM240 700q0 125 47 236t128 193.5t191.5 130t237.5 47.5 q125 0 234.5 -48.5t191.5 -131.5t129 -192.5t47 -234.5t-47 -235.5t-129 -192.5t-192.5 -130t-235.5 -48q-127 0 -236.5 47t-190.5 130t-128 192.5t-47 236.5zM580 1518q0 -37 23.5 -56.5t51.5 -19.5q31 0 54.5 18.5t23.5 57.5q0 37 -23.5 56t-54.5 19q-29 0 -52 -18.5 t-23 -56.5zM938 1518q0 -37 23.5 -56.5t52.5 -19.5q31 0 54.5 18.5t23.5 57.5q0 37 -24 56t-54 19q-29 0 -52.5 -18.5t-23.5 -56.5z" />
<glyph unicode="&#xd7;" horiz-adv-x="1335" d="M193 229l88 -88l387 387l387 -387l88 88l-387 387l387 388l-88 88l-387 -387l-387 387l-88 -88l387 -388z" />
<glyph unicode="&#xd8;" horiz-adv-x="1685" d="M93 702.5q-1 -141.5 54.5 -281.5t176.5 -257l-150 -182l98 -66l144 174q94 -66 203.5 -96.5t224.5 -30.5q168 0 305 61.5t235.5 164t152.5 234.5t55 272.5t-53 280.5t-175 257l133 164l-98 65l-127 -153q-94 68 -205 98.5t-225 30.5q-170 0 -307.5 -61.5t-234.5 -164 t-151.5 -235.5t-55.5 -274.5zM236.5 706.5q3.5 114.5 48.5 223t124.5 191.5t190.5 134.5t244 51.5q90 0 178 -26t160 -81l-768 -928q-96 92 -138.5 206t-39 228.5zM504 197l768 927q94 -94 137 -206.5t39 -227.5t-49 -222.5t-125 -190t-189.5 -133t-242.5 -50.5 q-90 0 -177 24.5t-161 78.5z" />
<glyph unicode="&#xd9;" horiz-adv-x="1386" d="M145 524q0 -127 39 -230.5t111 -177t174 -113.5t229 -40q131 0 232.5 44t170 121t104.5 183.5t36 233.5v882l-135 -14v-844q0 -98 -24.5 -184t-76 -150.5t-128 -102.5t-183.5 -38q-102 0 -179 35t-129 95.5t-78.5 143.5t-26.5 179v880l-136 -14v-889zM453 1815l313 -324 l108 2l-231 317z" />
<glyph unicode="&#xda;" horiz-adv-x="1386" d="M145 524q0 -127 39 -230.5t111 -177t174 -113.5t229 -40q131 0 232.5 44t170 121t104.5 183.5t36 233.5v882l-135 -14v-844q0 -98 -24.5 -184t-76 -150.5t-128 -102.5t-183.5 -38q-102 0 -179 35t-129 95.5t-78.5 143.5t-26.5 179v880l-136 -14v-889zM600 1491h109 l309 324l-189 -5z" />
<glyph unicode="&#xdb;" horiz-adv-x="1386" d="M145 524q0 -127 39 -230.5t111 -177t174 -113.5t229 -40q131 0 232.5 44t170 121t104.5 183.5t36 233.5v882l-135 -14v-844q0 -98 -24.5 -184t-76 -150.5t-128 -102.5t-183.5 -38q-102 0 -179 35t-129 95.5t-78.5 143.5t-26.5 179v880l-136 -14v-889zM385 1483h127 l180 211l180 -211l127 2l-237 330h-137z" />
<glyph unicode="&#xdc;" horiz-adv-x="1386" d="M145 524q0 -127 39 -230.5t111 -177t174 -113.5t229 -40q131 0 232.5 44t170 121t104.5 183.5t36 233.5v882l-135 -14v-844q0 -98 -24.5 -184t-76 -150.5t-128 -102.5t-183.5 -38q-102 0 -179 35t-129 95.5t-78.5 143.5t-26.5 179v880l-136 -14v-889zM432 1513 q0 -37 23.5 -56t52.5 -19q31 0 54.5 18t23.5 57q0 37 -23.5 56.5t-54.5 19.5q-29 0 -52.5 -18.5t-23.5 -57.5zM791 1513q0 -37 23.5 -56t51.5 -19q31 0 54.5 18t23.5 57q0 37 -23.5 56.5t-54.5 19.5q-29 0 -52 -18.5t-23 -57.5z" />
<glyph unicode="&#xdd;" horiz-adv-x="1155" d="M-23 1409l541 -768l-115 -657l136 14l114 604l525 807l-154 18l-432 -655l-463 655zM492 1491h110l309 324l-188 -5z" />
<glyph unicode="&#xde;" horiz-adv-x="1021" d="M109 -16l137 14v291h182q106 0 195.5 25.5t154 80t100 136t35.5 194.5q0 111 -35.5 190.5t-100 132t-152.5 77t-191 24.5q-47 0 -95 -1t-95 -1v280l-135 -14v-1429zM244 416v604h219q66 0 121 -21.5t96 -59.5t64.5 -92t23.5 -122h-2q0 -123 -48 -186.5t-123 -91 t-168 -29.5t-183 -2z" />
<glyph unicode="&#xdf;" horiz-adv-x="1126" d="M123 -23l125 15v950q0 70 7 141.5t33.5 128t79 92t142.5 35.5q127 0 199.5 -67.5t72.5 -196.5q0 -66 -22.5 -111.5t-60 -75.5t-90 -44.5t-111.5 -14.5l-2 -96q135 -6 219 -56t124 -121t39 -151.5t-36 -149.5t-101.5 -114t-154.5 -45q-74 0 -120 41t-63 111l-127 -39 q29 -47 56.5 -91t63.5 -77t81 -52.5t107 -19.5q121 0 208 51.5t138 130t67.5 175t-5 187.5t-82 166t-158.5 109q76 49 117.5 128t41.5 169q0 119 -58 202t-146.5 126t-189.5 44t-189 -44t-146.5 -137t-58.5 -238v-1061z" />
<glyph unicode="&#xe0;" horiz-adv-x="937" d="M114.5 359.5q-22.5 -95.5 6.5 -182.5t108.5 -148.5t212.5 -61.5q74 0 141.5 33t116.5 86l11 -121l123 43q-6 121 -7 238v239q0 98 -1 191.5t-27.5 167.5t-93 118t-197.5 44q-80 0 -156 -25t-145 -61l-25 -146q66 45 148 79t162 34q86 0 146 -43t60 -135v-119 q-172 53 -293.5 28.5t-194.5 -94t-95.5 -165zM231 276q0 59 26 104.5t67 76t93 46t105 15.5q20 0 50 -8t57.5 -23.5t48 -35.5t20.5 -45q0 -35 -1 -72t-1 -72q0 -8 -6 -21.5t-10 -19.5q-45 -78 -121 -109.5t-148.5 -21.5t-126 58.5t-53.5 127.5zM270 1425l314 -323l110 2 l-233 317z" />
<glyph unicode="&#xe1;" horiz-adv-x="937" d="M114.5 359.5q-22.5 -95.5 6.5 -182.5t108.5 -148.5t212.5 -61.5q74 0 141.5 33t116.5 86l11 -121l123 43q-6 121 -7 238v239q0 98 -1 191.5t-27.5 167.5t-93 118t-197.5 44q-80 0 -156 -25t-145 -61l-25 -146q66 45 148 79t162 34q86 0 146 -43t60 -135v-119 q-172 53 -293.5 28.5t-194.5 -94t-95.5 -165zM231 276q0 59 26 104.5t67 76t93 46t105 15.5q20 0 50 -8t57.5 -23.5t48 -35.5t20.5 -45q0 -35 -1 -72t-1 -72q0 -8 -6 -21.5t-10 -19.5q-45 -78 -121 -109.5t-148.5 -21.5t-126 58.5t-53.5 127.5zM418 1102h110l310 323 l-189 -4z" />
<glyph unicode="&#xe2;" horiz-adv-x="937" d="M114.5 359.5q-22.5 -95.5 6.5 -182.5t108.5 -148.5t212.5 -61.5q74 0 141.5 33t116.5 86l11 -121l123 43q-6 121 -7 238v239q0 98 -1 191.5t-27.5 167.5t-93 118t-197.5 44q-80 0 -156 -25t-145 -61l-25 -146q66 45 148 79t162 34q86 0 146 -43t60 -135v-119 q-172 53 -293.5 28.5t-194.5 -94t-95.5 -165zM203 1094h127l182 211l180 -211l127 2l-239 329h-136zM231 276q0 59 26 104.5t67 76t93 46t105 15.5q20 0 50 -8t57.5 -23.5t48 -35.5t20.5 -45q0 -35 -1 -72t-1 -72q0 -8 -6 -21.5t-10 -19.5q-45 -78 -121 -109.5t-148.5 -21.5 t-126 58.5t-53.5 127.5z" />
<glyph unicode="&#xe3;" horiz-adv-x="937" d="M107.5 360.5q-23.5 -96.5 5 -183.5t108.5 -148.5t213 -61.5q74 0 141.5 33t116.5 86l8 -121l123 43q-6 121 -6 238v239q0 98 -1 191.5t-27.5 167.5t-93 118t-197.5 44q-80 0 -156 -25t-145 -61l-25 -146q66 45 148.5 79t162.5 34q86 0 145.5 -43t59.5 -135v-119 q-170 55 -291 30.5t-193.5 -94t-96 -166zM170 1143h88q8 55 32.5 76.5t57.5 21.5t73 -15.5t82 -32.5t84 -32.5t79 -15.5q47 0 79.5 18.5t54 49t31 69.5t11.5 80h-88q-10 -55 -35 -76.5t-60 -21.5q-33 0 -72.5 15t-81.5 32.5t-83 33t-76 15.5q-47 0 -80 -18.5t-53 -49 t-30.5 -69.5t-12.5 -80zM223 276q0 59 25.5 104.5t66.5 76t93.5 46t105.5 15.5q20 0 50 -8t57.5 -23.5t47 -36t19.5 -44.5v-144q0 -8 -7 -20.5t-11 -20.5q-49 -82 -126 -112.5t-147.5 -18.5t-122 60.5t-51.5 125.5z" />
<glyph unicode="&#xe4;" horiz-adv-x="937" d="M114.5 359.5q-22.5 -95.5 6.5 -182.5t108.5 -148.5t212.5 -61.5q74 0 141.5 33t116.5 86l11 -121l123 43q-6 121 -7 238v239q0 98 -1 191.5t-27.5 167.5t-93 118t-197.5 44q-80 0 -156 -25t-145 -61l-25 -146q66 45 148 79t162 34q86 0 146 -43t60 -135v-119 q-172 53 -293.5 28.5t-194.5 -94t-95.5 -165zM231 276q0 59 26 104.5t67 76t93 46t105 15.5q20 0 50 -8t57.5 -23.5t48 -35.5t20.5 -45q0 -35 -1 -72t-1 -72q0 -8 -6 -21.5t-10 -19.5q-45 -78 -121 -109.5t-148.5 -21.5t-126 58.5t-53.5 127.5zM250 1247q0 -39 24.5 -58.5 t53.5 -19.5t53.5 19.5t24.5 58.5h-3q0 39 -23.5 58.5t-53 18.5t-53 -20.5t-23.5 -56.5zM608 1247q0 -39 24.5 -58.5t53.5 -19.5t53.5 19.5t24.5 58.5t-24.5 57.5t-53.5 18.5t-53.5 -18.5t-24.5 -57.5z" />
<glyph unicode="&#xe5;" horiz-adv-x="937" d="M114.5 359.5q-22.5 -95.5 6.5 -182.5t108.5 -148.5t212.5 -61.5q74 0 141.5 33t116.5 86l11 -121l123 43q-6 121 -7 238v239q0 98 -1 191.5t-27.5 167.5t-93 118t-197.5 44q-80 0 -156 -25t-145 -61l-25 -146q66 45 148 79t162 34q86 0 146 -43t60 -135v-119 q-172 53 -293.5 28.5t-194.5 -94t-95.5 -165zM231 276q0 59 26 104.5t67 76t93 46t105 15.5q20 0 50 -8t57.5 -23.5t48 -36t20.5 -44.5v-144q0 -8 -7 -21.5t-11 -19.5q-49 -80 -125 -110.5t-147.5 -19.5t-124 59.5t-52.5 125.5zM311 1286q0 -66 30 -109.5t75 -66.5t96 -23 t96 23t75 66.5t30 109.5t-30 110t-75 66.5t-96 22.5t-96 -22.5t-75 -66.5t-30 -110zM391 1286q0 59 38 89t83 30t83 -30t38 -89h-2q0 -59 -38 -89t-83 -30q-43 0 -81 30t-38 89z" />
<glyph unicode="&#xe6;" horiz-adv-x="1638" d="M99.5 356.5q21.5 94.5 95 164t199.5 95t308 -25.5v119q0 47 -18 80.5t-48 55t-69 32t-82 10.5q-82 0 -167 -34t-150 -79l25 146q70 37 156.5 61.5t171.5 21t159 -40t119 -122.5q86 111 205.5 147.5t234.5 7t201.5 -121t109.5 -234.5q-10 6 -61 -7.5t-125 -37t-158 -54 t-161.5 -59t-137 -51t-82.5 -31.5q14 -63 46 -118.5t77 -97.5t103.5 -65.5t126.5 -23.5q100 0 187 50.5t159 115.5v-151q-84 -74 -183.5 -110t-201 -31t-194.5 51.5t-163 136.5q-63 -88 -160.5 -137.5t-207.5 -49.5q-125 0 -202 60.5t-105.5 146.5t-7 180.5zM217 276 q0 -82 55.5 -129t132 -56t154.5 21.5t125 108.5q4 6 10 19.5t6 21.5q0 35 1 72t1 72q0 25 -21.5 45t-50 35.5t-59 23.5t-51.5 8q-55 0 -109.5 -14.5t-97.5 -45t-69.5 -75.5t-26.5 -107zM819 510l553 207q-25 72 -74 112.5t-109.5 51t-124 -9t-116.5 -66.5t-89 -122t-40 -173 z" />
<glyph unicode="&#xe7;" horiz-adv-x="985" d="M81 522q-9 -127 34 -241.5t139 -199.5t248 -108l-70 -123l27 -22q61 20 101 1t49 -50t-18.5 -60.5t-103.5 -29.5q-53 0 -108 22l-23 -84q106 -37 182 -29.5t120 40t60.5 81t5.5 93.5t-49 76.5t-100 31.5q-6 0 -11 -1t-11 -3l31 51q80 0 167.5 23.5t153.5 70.5l-43 117 q-59 -41 -129.5 -62.5t-142.5 -21.5q-127 0 -211 58.5t-126 145.5t-42 189t42 189.5t128 146t213 58.5q72 0 138.5 -25t125.5 -59l45 121q-72 39 -150.5 63.5t-160.5 24.5q-160 0 -269.5 -71t-171 -178.5t-70.5 -234.5z" />
<glyph unicode="&#xe8;" horiz-adv-x="1048" d="M72 494q0 156 61.5 264t154.5 168.5t205.5 73t213 -22.5t175.5 -118t95 -212l-768 -248q16 -68 51 -124t84 -96t110.5 -62.5t131.5 -22.5q104 0 196 50.5t170 115.5v-151q-86 -78 -184 -113t-196.5 -32t-188.5 42t-159.5 107.5t-110.5 165t-41 215.5zM203 508l598 207 q-25 72 -77 112.5t-117.5 51t-135.5 -7t-128 -64.5t-97 -122t-43 -177zM293 1425l190 -4l234 -317l-111 -2z" />
<glyph unicode="&#xe9;" horiz-adv-x="1048" d="M72 494q0 -119 41 -215.5t110.5 -165t159.5 -107.5t187.5 -42t196.5 32t185 113v151q-78 -66 -170 -116t-196 -50q-72 0 -132.5 22.5t-109.5 62.5t-84 96.5t-51 123.5l768 248q-20 129 -94 212t-175.5 118t-213 22.5t-205.5 -73t-155.5 -169t-61.5 -263.5zM203 508 q4 102 43 177t97 122t128 64.5t135.5 7t117.5 -51t77 -112.5zM440 1102h111l309 323l-188 -4z" />
<glyph unicode="&#xea;" horiz-adv-x="1048" d="M72 494q0 156 61.5 264t154.5 168.5t205.5 73t213 -22.5t175.5 -118t95 -212l-768 -248q16 -68 51 -124t84 -96t110.5 -62.5t131.5 -22.5q104 0 196 50.5t170 115.5v-151q-86 -78 -184 -113t-196.5 -32t-188.5 42t-159.5 107.5t-110.5 165t-41 215.5zM203 508l598 207 q-25 72 -77 112.5t-117.5 51t-135.5 -7t-128 -64.5t-97 -122t-43 -177zM225 1094l242 331h135l240 -329l-127 -2l-180 211l-183 -211h-127z" />
<glyph unicode="&#xeb;" horiz-adv-x="1048" d="M72 494q0 156 61.5 264t154.5 168.5t205.5 73t213 -22.5t175.5 -118t95 -212l-768 -248q16 -68 51 -124t84 -96t110.5 -62.5t131.5 -22.5q104 0 196 50.5t170 115.5v-151q-86 -78 -184 -113t-196.5 -32t-188.5 42t-159.5 107.5t-110.5 165t-41 215.5zM203 508l598 207 q-25 72 -77 112.5t-117.5 51t-135.5 -7t-128 -64.5t-97 -122t-43 -177zM272 1247q0 37 23.5 56.5t53.5 20.5t53.5 -18.5t23.5 -58.5h2q0 -39 -24.5 -58.5t-53.5 -19.5t-53.5 19.5t-24.5 58.5zM631 1247q0 39 24.5 57.5t53.5 18.5t53 -18.5t24 -57.5t-24.5 -58.5t-52.5 -19.5 q-29 0 -53.5 19.5t-24.5 58.5z" />
<glyph unicode="&#xec;" horiz-adv-x="464" d="M18 1425l314 -323l110 2l-233 317zM205 -20l127 22v1006q-31 -12 -62.5 -22.5t-64.5 -20.5v-985z" />
<glyph unicode="&#xed;" horiz-adv-x="464" d="M25 1102h110l309 323l-188 -4zM63 -20l127 22v1006q-31 -12 -62.5 -22.5t-64.5 -20.5v-985z" />
<glyph unicode="&#xee;" horiz-adv-x="464" d="M-76 1094h127l182 211l181 -211l127 2l-240 329h-135zM178 -20l125 22v1006q-31 -12 -62.5 -22.5t-62.5 -20.5v-985z" />
<glyph unicode="&#xef;" horiz-adv-x="464" d="M-25 1247q0 -39 25 -58.5t53 -19.5q29 0 53.5 19.5t24.5 58.5h-2q0 39 -23.5 58.5t-53 18.5t-53.5 -20.5t-24 -56.5zM182 -20l127 22v1006q-31 -12 -62.5 -22.5t-64.5 -20.5v-985zM334 1247q0 -39 24.5 -58.5t53.5 -19.5t53 19.5t24 58.5t-24.5 57.5t-52.5 18.5 q-29 0 -53.5 -18.5t-24.5 -57.5z" />
<glyph unicode="&#xf0;" horiz-adv-x="1187" d="M72 479q0 -113 41 -207t111.5 -162.5t166.5 -106.5t207 -38q119 0 215 45t163.5 122t103.5 178.5t36 215.5q0 111 -29.5 209.5t-82 187.5t-121 167.5t-148.5 148.5l248 98l-51 95l-295 -119q-59 41 -122.5 74.5t-129.5 60.5l-72 -80q49 -25 97.5 -50.5t93.5 -57.5 l-252 -101l47 -94l307 123q72 -53 133.5 -119.5t102.5 -148.5q-111 82 -246 81q-111 0 -207 -39.5t-166.5 -110.5t-110.5 -166t-40 -206zM197 496q0 127 58 213t146 130t190.5 46t190.5 -39t146.5 -127t58.5 -215h-2q0 -143 -58.5 -235.5t-146.5 -137.5t-189.5 -44 t-189.5 47t-146 137t-58 225z" />
<glyph unicode="&#xf1;" horiz-adv-x="1058" d="M133 -20l127 22v660q0 4 7 22t12 25q49 98 136 144t173 36t148.5 -79t62.5 -200v-630l127 22v610q0 178 -94.5 286t-278.5 108q-94 0 -168 -42t-127 -116v160q-29 -12 -60.5 -20.5t-64.5 -12.5v-995zM209 1143h88q8 55 32.5 76.5t57.5 21.5t73 -15.5t82 -32.5t84 -32.5 t79 -15.5q47 0 79.5 18.5t54 49t31 69.5t11.5 80h-88q-10 -55 -35 -76.5t-60 -21.5q-33 0 -72.5 15t-81.5 32.5t-83 33t-76 15.5q-47 0 -80 -18.5t-53.5 -49t-30.5 -69.5t-12 -80z" />
<glyph unicode="&#xf2;" horiz-adv-x="1169" d="M76 485q0 -106 39 -200.5t107.5 -165t160.5 -111.5t201 -41q106 0 199.5 41t163 111.5t108.5 165t39 200.5t-39 201.5t-107.5 166.5t-162 112t-201.5 41q-109 0 -202 -41t-160.5 -112t-106.5 -166t-39 -202zM207 485q0 78 28.5 150t79 126t120 87t149.5 33t149.5 -32 t120.5 -86t80 -126t29 -152h-2q0 -78 -29 -149.5t-79 -125.5t-119.5 -86t-149.5 -32t-148.5 32t-120 86t-80 126t-28.5 149zM340 1425l313 -323l111 2l-234 317z" />
<glyph unicode="&#xf3;" horiz-adv-x="1169" d="M76 485q0 -106 39 -200.5t107.5 -165t160.5 -111.5t201 -41q106 0 199.5 41t163 111.5t108.5 165t39 200.5t-39 201.5t-107.5 166.5t-162 112t-201.5 41q-109 0 -202 -41t-160.5 -112t-106.5 -166t-39 -202zM207 485q0 78 28.5 150t79 126t120 87t149.5 33t149.5 -32 t120.5 -86t80 -126t29 -152h-2q0 -78 -29 -149.5t-79 -125.5t-119.5 -86t-149.5 -32t-148.5 32t-120 86t-80 126t-28.5 149zM487 1102h111l309 323l-188 -4z" />
<glyph unicode="&#xf4;" horiz-adv-x="1169" d="M76 485q0 -106 39 -200.5t107.5 -165t160.5 -111.5t201 -41q106 0 199.5 41t163 111.5t108.5 165t39 200.5t-39 201.5t-107.5 166.5t-162 112t-201.5 41q-109 0 -202 -41t-160.5 -112t-106.5 -166t-39 -202zM207 485q0 78 28.5 150t79 126t120 87t149.5 33t149.5 -32 t120.5 -86t80 -126t29 -152h-2q0 -78 -29 -149.5t-79 -125.5t-119.5 -86t-149.5 -32t-148.5 32t-120 86t-80 126t-28.5 149zM272 1094h127l183 211l180 -211l127 2l-240 329h-135z" />
<glyph unicode="&#xf5;" horiz-adv-x="1169" d="M76 485q0 -106 39 -200.5t107.5 -165t160.5 -111.5t201 -41q106 0 199.5 41t163 111.5t108.5 165t39 200.5t-39 201.5t-107.5 166.5t-162 112t-201.5 41q-109 0 -202 -41t-160.5 -112t-106.5 -166t-39 -202zM207 485q0 78 28.5 150t79 126t120 87t149.5 33t149.5 -32 t120.5 -86t80 -126t29 -152h-2q0 -78 -29 -149.5t-79 -125.5t-119.5 -86t-149.5 -32t-148.5 32t-120 86t-80 126t-28.5 149zM248 1143h90q8 55 32.5 76.5t57.5 21.5t73 -15.5t82 -32.5t84 -32.5t76 -15.5q47 0 80 18.5t54.5 49t32 69.5t12.5 80h-91q-8 -55 -30.5 -76.5 t-57.5 -21.5q-33 0 -74.5 14t-83.5 32.5t-84 34t-75 15.5q-47 0 -80 -18.5t-54.5 -49t-31.5 -69.5t-12 -80z" />
<glyph unicode="&#xf6;" horiz-adv-x="1169" d="M76 485q0 -106 39 -200.5t107.5 -165t160.5 -111.5t201 -41q106 0 199.5 41t163 111.5t108.5 165t39 200.5t-39 201.5t-107.5 166.5t-162 112t-201.5 41q-109 0 -202 -41t-160.5 -112t-106.5 -166t-39 -202zM207 485q0 78 28.5 150t79 126t120 87t149.5 33t149.5 -32 t120.5 -86t80 -126t29 -152h-2q0 -78 -29 -149.5t-79 -125.5t-119.5 -86t-149.5 -32t-148.5 32t-120 86t-80 126t-28.5 149zM319 1247q0 -39 25 -58.5t53 -19.5q29 0 53.5 19.5t24.5 58.5h-2q0 39 -23.5 58.5t-53 18.5t-53.5 -20.5t-24 -56.5zM678 1247q0 -39 24.5 -58.5 t53.5 -19.5t53.5 19.5t24.5 58.5t-25 57.5t-53 18.5q-29 0 -53.5 -18.5t-24.5 -57.5z" />
<glyph unicode="&#xf7;" horiz-adv-x="1335" d="M131 555v123h1073v-123h-1073zM569 313q0 39 24.5 57.5t53.5 18.5t53.5 -18.5t24.5 -57.5t-24.5 -58t-53.5 -19t-53.5 19t-24.5 58zM569 969q0 39 24.5 57t53.5 18t53.5 -18t24.5 -57t-24.5 -58.5t-53.5 -19.5t-53.5 19.5t-24.5 58.5z" />
<glyph unicode="&#xf8;" horiz-adv-x="1169" d="M74 486.5q-2 -99.5 34.5 -195.5t116.5 -174l-135 -170l92 -60l127 160q59 -41 131 -60.5t144 -19.5q115 0 208 44t160.5 116t104.5 165t38 192.5t-36 195.5t-117 176l129 162l-92 61l-121 -153q-59 41 -131 60.5t-143 19.5q-115 0 -208 -44t-159.5 -117t-103.5 -166 t-39 -192.5zM213 427q-14 114 26 215t129 170t216 69q53 0 103 -14.5t93 -43.5l-473 -602q-80 92 -94 206zM387 150l473 602q51 -53 77 -123t26 -144h-2q0 -72 -25 -137t-68 -116.5t-99 -87t-119.5 -49t-131 -1.5t-131.5 56z" />
<glyph unicode="&#xf9;" horiz-adv-x="1058" d="M133 362q0 -182 89 -288.5t280 -106.5q92 0 166.5 45t128.5 119v-139q35 -4 64.5 0t64.5 8v985l-127 -18v-379q0 -47 2 -93t-2 -94q-4 -61 -24.5 -118.5t-57.5 -101.5t-89.5 -69.5t-119.5 -25.5q-72 0 -120 22.5t-76.5 62.5t-40 94t-11.5 120v600l-127 -18v-605z M289 1425l313 -323l109 2l-232 317z" />
<glyph unicode="&#xfa;" horiz-adv-x="1058" d="M133 362q0 -182 89 -288.5t280 -106.5q92 0 166.5 45t128.5 119v-139q35 -4 64.5 0t64.5 8v985l-127 -18v-379q0 -47 2 -93t-2 -94q-4 -61 -24.5 -118.5t-57.5 -101.5t-89.5 -69.5t-119.5 -25.5q-72 0 -120 22.5t-76.5 62.5t-40 94t-11.5 120v600l-127 -18v-605z M436 1102h109l309 323l-188 -4z" />
<glyph unicode="&#xfb;" horiz-adv-x="1058" d="M133 362q0 -182 89 -288.5t280 -106.5q92 0 166.5 45t128.5 119v-139q35 -4 64.5 0t64.5 8v985l-127 -18v-379q0 -47 2 -93t-2 -94q-4 -61 -24.5 -118.5t-57.5 -101.5t-89.5 -69.5t-119.5 -25.5q-72 0 -120 22.5t-76.5 62.5t-40 94t-11.5 120v600l-127 -18v-605z M221 1094h127l180 211l181 -211l127 2l-238 329h-137z" />
<glyph unicode="&#xfc;" horiz-adv-x="1058" d="M133 362q0 -182 89 -288.5t280 -106.5q92 0 166.5 45t128.5 119v-139q35 -4 64.5 0t64.5 8v985l-127 -18v-379q0 -47 2 -93t-2 -94q-4 -61 -24.5 -118.5t-57.5 -101.5t-89.5 -69.5t-119.5 -25.5q-72 0 -120 22.5t-76.5 62.5t-40 94t-11.5 120v600l-127 -18v-605z M268 1247q0 -37 23.5 -56.5t52.5 -19.5q31 0 54.5 18.5t23.5 57.5q0 37 -23.5 56.5t-54.5 19.5q-29 0 -52.5 -18.5t-23.5 -57.5zM627 1247q0 -37 23.5 -56.5t51.5 -19.5q31 0 54.5 18.5t23.5 57.5q0 37 -23.5 56.5t-54.5 19.5q-29 0 -52 -18.5t-23 -57.5z" />
<glyph unicode="&#xfd;" horiz-adv-x="927" d="M-16 985l428 -807l-291 -602q29 4 63.5 0t63.5 -12l694 1419q-29 4 -64.5 11t-64.5 3l-332 -686l-366 684q-35 -4 -66 -7t-65 -3zM365 1102h108l309 323l-188 -4z" />
<glyph unicode="&#xfe;" horiz-adv-x="1193" d="M113 -436l129 22v506q70 -63 160 -94t182 -31q102 0 193 42t159 114t106.5 164t38.5 194q0 113 -37.5 209t-105.5 166t-162 110t-209 40q-92 0 -177 -36t-150 -102v580q-68 0 -127 -23v-1861zM242 322v317q0 16 5 30.5t11 28.5q33 76 97.5 120t140 57.5t155.5 -5 t145.5 -68.5t107.5 -131t42 -194h-2q0 -98 -39 -173t-101.5 -125t-139 -71.5t-152.5 -12.5t-142.5 52t-107.5 121q-4 10 -12 26.5t-8 27.5z" />
<glyph unicode="&#xff;" horiz-adv-x="927" d="M-16 985l428 -807l-291 -602q29 4 63.5 0t63.5 -12l694 1419q-29 4 -64.5 11t-64.5 3l-332 -686l-366 684q-35 -4 -66 -7t-65 -3zM197 1247q0 -37 23.5 -56.5t51.5 -19.5q31 0 54.5 18.5t23.5 57.5q0 37 -23.5 56.5t-54.5 19.5q-29 0 -52 -18.5t-23 -57.5zM555 1247 q0 -37 23.5 -56.5t52.5 -19.5q31 0 54.5 18.5t23.5 57.5q0 37 -23.5 56.5t-54.5 19.5q-29 0 -52.5 -18.5t-23.5 -57.5z" />
<glyph unicode="&#x152;" horiz-adv-x="1986" d="M70 705q0 -154 55 -287t151.5 -232.5t229.5 -156t287 -56.5q98 0 191 34t157 112v-129h764l12 129h-647v526h565v127h-565v512h622l-14 127h-743v-123q-59 70 -154.5 104.5t-185.5 34.5q-152 0 -284 -56t-230.5 -153.5t-154.5 -229.5t-56 -283zM215 702q0 121 45 229.5 t125 190.5t186.5 130t229.5 48q59 0 119.5 -20t108.5 -59t79 -92.5t31 -116.5q0 -156 -1 -309.5t-1 -309.5q0 -68 -29 -121t-76 -92t-107.5 -59.5t-121.5 -20.5q-127 0 -235.5 47.5t-186.5 128t-122 190t-44 236.5z" />
<glyph unicode="&#x153;" horiz-adv-x="1923" d="M90 485q0 -133 51.5 -234t134 -169t185 -96.5t207 -15t200 70.5t160.5 166q55 -111 152.5 -169t209 -69.5t223 24.5t195.5 116v151q-70 -66 -159.5 -116t-188.5 -50q-68 0 -126 23.5t-104 65.5t-77 97.5t-45 118.5q31 10 90 33t133 49.5t153 54t149.5 51t124.5 38 t77 14.5q-16 109 -66.5 185.5t-122 120.5t-156.5 56.5t-170 -9t-163 -75t-133 -139.5q-72 106 -169 161.5t-201.5 66t-205 -21.5t-180.5 -99.5t-129 -169t-49 -230.5zM221 485q0 78 27.5 150t78 126t119 87t148.5 33t148.5 -33t117.5 -87t78 -126t29 -150t-29 -149.5 t-79 -125.5t-118.5 -86t-148.5 -32t-147.5 33t-118 87t-78 125t-27.5 148zM1100 510q4 96 40 170t89 122t116.5 68.5t125 10t111.5 -50t75 -113.5z" />
<glyph unicode="&#x178;" horiz-adv-x="1155" d="M-23 1409l541 -768l-115 -657l136 14l114 604l525 807l-154 18l-432 -655l-463 655zM324 1636q0 -39 24.5 -58t52.5 -19q29 0 53.5 19t24.5 58h-2q0 39 -23.5 58.5t-53 18.5t-53 -20.5t-23.5 -56.5zM682 1636q0 -39 24.5 -58t53.5 -19t53.5 19t24.5 58t-25 57.5t-53 18.5 q-29 0 -53.5 -18.5t-24.5 -57.5z" />
<glyph unicode="&#x2c6;" horiz-adv-x="614" d="M0 1094h127l180 211l180 -211l127 2l-237 329h-137z" />
<glyph unicode="&#x2dc;" horiz-adv-x="614" d="M-29 1143h88q8 55 33 76.5t58 21.5t72.5 -15.5t81.5 -32.5t84 -32.5t79 -15.5q47 0 80 18.5t54.5 49t30.5 69.5t11 80h-88q-10 -55 -34.5 -76.5t-59.5 -21.5q-33 0 -73 15t-82 32.5t-83 33t-76 15.5q-47 0 -79.5 -18.5t-53 -49t-31 -69.5t-12.5 -80z" />
<glyph unicode="&#x2000;" horiz-adv-x="937" />
<glyph unicode="&#x2001;" horiz-adv-x="1874" />
<glyph unicode="&#x2002;" horiz-adv-x="937" />
<glyph unicode="&#x2003;" horiz-adv-x="1874" />
<glyph unicode="&#x2004;" horiz-adv-x="624" />
<glyph unicode="&#x2005;" horiz-adv-x="468" />
<glyph unicode="&#x2006;" horiz-adv-x="312" />
<glyph unicode="&#x2007;" horiz-adv-x="312" />
<glyph unicode="&#x2008;" horiz-adv-x="234" />
<glyph unicode="&#x2009;" horiz-adv-x="374" />
<glyph unicode="&#x200a;" horiz-adv-x="104" />
<glyph unicode="&#x2010;" horiz-adv-x="706" d="M92 430l522 2v113h-522v-115z" />
<glyph unicode="&#x2011;" horiz-adv-x="706" d="M92 430l522 2v113h-522v-115z" />
<glyph unicode="&#x2012;" horiz-adv-x="706" d="M92 430l522 2v113h-522v-115z" />
<glyph unicode="&#x2013;" d="M6 463l1057 2v96h-1057v-98z" />
<glyph unicode="&#x2014;" horiz-adv-x="2093" d="M6 463l2081 2v96h-2081v-98z" />
<glyph unicode="&#x2018;" horiz-adv-x="464" d="M113 1034l104 -41l135 355l-104 41z" />
<glyph unicode="&#x2019;" horiz-adv-x="464" d="M113 1034l104 -41l135 355l-104 41z" />
<glyph unicode="&#x201a;" horiz-adv-x="575" d="M49 -20l129 22v1088q0 86 25.5 140t73 79.5t110.5 25t141 -23.5l-20 125q-41 23 -90 22q-166 0 -267.5 -86t-101.5 -260v-1132z" />
<glyph unicode="&#x201c;" horiz-adv-x="792" d="M106 1034l107 -41l135 355l-106 41zM444 1034l107 -41l135 355l-106 41z" />
<glyph unicode="&#x201d;" horiz-adv-x="792" d="M106 1034l107 -41l135 355l-106 41zM444 1034l107 -41l135 355l-106 41z" />
<glyph unicode="&#x201e;" horiz-adv-x="792" d="M106 -195l107 -41l135 355l-106 41zM444 -195l107 -41l135 355l-106 41z" />
<glyph unicode="&#x2022;" d="M223 700q0 63 24.5 120t67.5 100t99.5 67.5t120.5 24.5q63 0 119.5 -24.5t99.5 -67.5t67.5 -100t24.5 -120t-24.5 -119.5t-67.5 -99.5t-99.5 -67.5t-119.5 -24.5t-120 24.5t-100 67.5t-67.5 99.5t-24.5 119.5z" />
<glyph unicode="&#x2026;" horiz-adv-x="2093" d="M283 61q0 -39 24.5 -58t52.5 -19q29 0 53.5 19t24.5 58h-2q0 39 -23.5 58.5t-53 18.5t-53 -20.5t-23.5 -56.5zM969 61q0 -39 24.5 -58t53.5 -19t53 19t24 58h-2q0 39 -23.5 58.5t-53 18.5t-53 -20.5t-23.5 -56.5zM1655 61q0 -39 24.5 -58t53.5 -19t53 19t24 58 t-24.5 57.5t-52.5 18.5q-29 0 -53.5 -18.5t-24.5 -57.5z" />
<glyph unicode="&#x202f;" horiz-adv-x="374" />
<glyph unicode="&#x2039;" horiz-adv-x="618" d="M78 494l346 -383l115 41l-306 342l310 342l-115 41z" />
<glyph unicode="&#x203a;" horiz-adv-x="618" d="M76 836l309 -342l-305 -342l115 -41l346 383l-351 383z" />
<glyph unicode="&#x205f;" horiz-adv-x="468" />
<glyph unicode="&#x2122;" horiz-adv-x="2021" d="M211 1294h268v-698h131v700h264v115h-663v-117zM971 596h127v661l248 -661h81l252 661v-661l131 2v813h-206l-211 -606l-222 606h-200v-815z" />
<glyph unicode="&#x25fc;" horiz-adv-x="993" d="M0 0v993h993v-993h-993z" />
</font>
</defs>
</svg>
